<svg xmlns="http://www.w3.org/2000/svg" viewBox="0 0 99.81 83.96"><defs><style>.cls-1{fill:#b9b3c5;}.cls-2{opacity:0.5;}.cls-3{fill:#fff;}.cls-4{fill:none;stroke:#fff;stroke-miterlimit:10;stroke-width:0.42px;}.cls-5{fill:#413f45;}</style></defs><title>lf-icon</title><g id="Layer_2" data-name="Layer 2"><g id="heart"><path class="cls-1" d="M49.66,18.16C47.65,15,40.19,3.63,32.72,1.22,32,1,31.27.8,31.27.8a23.39,23.39,0,0,0-13.51.42c-12,4.24-20.49,19.61-17,32.9a34.91,34.91,0,0,0,18,21.93,66.83,66.83,0,0,1,16,10A67,67,0,0,1,49.66,84a58.79,58.79,0,0,1,4-6c1.6-2.09,6.12-7.73,17.95-16,8.68-6,10.54-6,16-11,2.22-2.05,5.74-5.28,8-9,4.58-7.56,7.13-21.46-1-31.9-.8-1-9.34-11.6-22.93-10-13.82,1.65-19.67,14.34-19.94,15Z"/></g><g id="outline" class="cls-2"><path id="_Compound_Path_" data-name="&lt;Compound Path&gt;" class="cls-3" d="M85.13,34.37a2.59,2.59,0,0,0-.79-.79,25.48,25.48,0,0,0-2.2-2.21A38.29,38.29,0,0,0,65,22.28c-12.52-3-25.59,1.51-35.12,10.64-.32.25-.85,1-1.19,1.25-.4.08-.34,0-.7-.27-1.54-1.06-3.08-2.11-4.56-3.17-3-2.12-6-4.16-8.94-6.21l.21,5.2c.08,1.11-.28,2.47.62,3.09l8.45,5.71c-2.51,2.18-5,4.29-7.44,6.47-1,.77-.88.85-.84,2.25l.26,5.14a4.77,4.77,0,0,1,.81-.64c3.51-2.73,7.11-5.48,10.63-8.15a9,9,0,0,1,1.49-1.24c.68-.18,1.74.83,2.33,1.16a62.06,62.06,0,0,0,11,4.8c4.12,1.25,8.22,2.58,12.57,2.71a20.8,20.8,0,0,0,4.77,0,23.08,23.08,0,0,0,5.84-1.41A44.38,44.38,0,0,0,81.71,39.12c.76-.78,1.5-1.55,2.22-2.33a9.15,9.15,0,0,0,1.36-1.68C85.48,34.65,85.46,34.73,85.13,34.37ZM33.7,38c11.9-12.15,28.38-15.76,44.46-2.69C65.61,46.06,50.92,49.6,33.7,38Z"/></g><g id="Layer_5" data-name="Layer 5"><path class="cls-4" d="M49.31,36.93h-2V35.74h2V33.69H50.5v2.05h2v1.19h-2V39H49.31Z"/><path class="cls-5" d="M33.83,21.39h1.86V31.53h3.06v1.69H33.83Z"/><path class="cls-5" d="M39.28,32.61a3.08,3.08,0,0,1-.73-2.2V24.19A3.05,3.05,0,0,1,39.28,22a3.2,3.2,0,0,1,4.19,0,3.1,3.1,0,0,1,.73,2.19v6.22a3.12,3.12,0,0,1-.73,2.2,3.2,3.2,0,0,1-4.19,0Zm3.06-2.08V24.08c0-.78-.33-1.17-1-1.17s-1,.39-1,1.17v6.45q0,1.17,1,1.17C42,31.7,42.34,31.31,42.34,30.53Z"/><path class="cls-5" d="M46,21.39h2.52L50.4,33.22H48.54l-.34-2.35v0H46.09l-.34,2.32H44Zm2,7.91-.83-5.85h0l-.81,5.85Z"/><path class="cls-5" d="M49.43,21.39h1.88l1.22,9.18h0l1.22-9.18h1.71l-1.8,11.83H51.23Z"/><path class="cls-5" d="M55.49,21.39h5.07v1.69H57.34V26.2H59.9v1.69H57.34v3.64h3.22v1.69H55.49Z"/><path class="cls-5" d="M61.13,32.62a3.2,3.2,0,0,1-.69-2.21v-.67h1.75v.81c0,.76.33,1.15,1,1.15a1,1,0,0,0,.72-.28,1.4,1.4,0,0,0,.24-.91,2.48,2.48,0,0,0-.34-1.31,6.24,6.24,0,0,0-1.25-1.36A7.31,7.31,0,0,1,60.93,26a3.68,3.68,0,0,1-.46-1.85A3.08,3.08,0,0,1,61.18,22a2.67,2.67,0,0,1,2.06-.77,2.56,2.56,0,0,1,2,.77,3.19,3.19,0,0,1,.69,2.2v.49H64.19v-.6a1.33,1.33,0,0,0-.24-.89.85.85,0,0,0-.69-.28c-.62,0-.93.38-.93,1.13a2.24,2.24,0,0,0,.35,1.2,6.62,6.62,0,0,0,1.26,1.35,7,7,0,0,1,1.6,1.85A4.11,4.11,0,0,1,66,30.38a3.16,3.16,0,0,1-.72,2.23,2.69,2.69,0,0,1-2.09.78A2.61,2.61,0,0,1,61.13,32.62Z"/><path class="cls-5" d="M33.59,39.39h5.47v1.88h-3.4v3.66h2.67v1.88H35.66v5.73H33.59Z"/><path class="cls-5" d="M39.06,39.39h2.06V52.54H39.06Z"/><path class="cls-5" d="M42.08,51.87a3.56,3.56,0,0,1-.77-2.45v-.75h2v.9c0,.85.35,1.28,1.07,1.28a1,1,0,0,0,.8-.31,1.53,1.53,0,0,0,.27-1A2.77,2.77,0,0,0,45,48.08a6.86,6.86,0,0,0-1.39-1.52,8.46,8.46,0,0,1-1.78-2,4.17,4.17,0,0,1-.51-2.06,3.43,3.43,0,0,1,.79-2.42,3,3,0,0,1,2.29-.85,2.86,2.86,0,0,1,2.25.85,3.62,3.62,0,0,1,.76,2.46v.54h-2v-.68a1.46,1.46,0,0,0-.26-1,1,1,0,0,0-.77-.31c-.69,0-1,.42-1,1.26a2.44,2.44,0,0,0,.38,1.33,7.79,7.79,0,0,0,1.4,1.5,7.94,7.94,0,0,1,1.79,2,4.62,4.62,0,0,1,.48,2.16,3.52,3.52,0,0,1-.79,2.48,3,3,0,0,1-2.32.87A2.92,2.92,0,0,1,42.08,51.87Z"/><path class="cls-5" d="M47.66,39.39h2.07v5.35H52V39.39H54V52.54H52V46.62H49.73v5.92H47.66Z"/><path class="cls-5" d="M54.56,39.39h5.63v1.88H56.62v3.47h2.84v1.88H56.62v4h3.57v1.88H54.56Z"/><path class="cls-5" d="M60.83,51.87a3.56,3.56,0,0,1-.77-2.45v-.75H62v.9c0,.85.36,1.28,1.08,1.28a1,1,0,0,0,.79-.31,1.47,1.47,0,0,0,.28-1,2.77,2.77,0,0,0-.38-1.45,6.86,6.86,0,0,0-1.39-1.52,8.24,8.24,0,0,1-1.78-2,4.17,4.17,0,0,1-.51-2.06,3.43,3.43,0,0,1,.79-2.42,3,3,0,0,1,2.29-.85,2.86,2.86,0,0,1,2.25.85,3.62,3.62,0,0,1,.76,2.46v.54h-2v-.68a1.51,1.51,0,0,0-.26-1,1,1,0,0,0-.77-.31c-.69,0-1,.42-1,1.26a2.44,2.44,0,0,0,.38,1.33,7.48,7.48,0,0,0,1.4,1.5,8.14,8.14,0,0,1,1.79,2,4.62,4.62,0,0,1,.48,2.16,3.52,3.52,0,0,1-.79,2.48,3,3,0,0,1-2.33.87A2.91,2.91,0,0,1,60.83,51.87Z"/></g></g></svg>