<?xml version="1.0" encoding="utf-8"?>
<svg id="master-artboard" viewBox="0 0 1227.0997314453125 1596.19482421875" version="1.1" xmlns="http://www.w3.org/2000/svg" x="0px" y="0px" width="1227.0997314453125px" height="1596.19482421875px" enable-background="new 0 0 1600 1600"><rect id="ee-background" x="0" y="0" width="1227.0997314453125" height="1596.19482421875" style="fill: white; fill-opacity: 0; pointer-events: none;"/>

























<g id="heart" transform="matrix(4.14767820345901, 0, 0, 4.14767820345901, -1126.9114164792456, -787.0271497798016)">
	<g>
		<path fill="#D4C179" d="M415,258.9c0,0-0.3,4.7-0.2,7.6c0.1,2.8,0.4,7.1,0.4,7.1l2-0.2C417.1,273.4,415.1,268.3,415,258.9z"/>
		<g>
			<g>
				<path fill="#FFFFFF" d="M384.6,200.7c-33.6-2.1-40.8-9.8-40.8-9.8s-13.8,45.4,26.8,53.5c29.2,5.8,40,2.5,44.2,14.9l1.4-14.6&#10;&#9;&#9;&#9;&#9;&#9;C416.3,244.6,420.4,202.9,384.6,200.7z"/>
				
					<linearGradient id="SVGID_56_" gradientUnits="userSpaceOnUse" x1="371.2162" y1="237.4337" x2="364.187" y2="269.0587" gradientTransform="matrix(0.9953 9.710000e-02 -9.710000e-02 0.9953 37.9696 -62.7571)">
					<stop offset="0" style="stop-color:#B7EA5F"/>
					<stop offset="1" style="stop-color:#2FC4A6"/>
				</linearGradient>
				<path fill="url(#SVGID_56_)" fill-opacity="0.8" d="M387.6,219.3c-19.9-1.9-43-6.1-43.8-28.5c0,0-13.8,45.4,26.8,53.5&#10;&#9;&#9;&#9;&#9;&#9;c29.2,5.8,40,2.5,44.2,14.9C414.9,259.2,413,221.8,387.6,219.3z"/>
				
					<linearGradient id="SVGID_57_" gradientUnits="userSpaceOnUse" x1="373.457" y1="225.9009" x2="367.8367" y2="252.6027" gradientTransform="matrix(0.9953 9.710000e-02 -9.710000e-02 0.9953 37.9696 -62.7571)">
					<stop offset="0" style="stop-color:#B7EA5F"/>
					<stop offset="1" style="stop-color:#2FC4A6"/>
				</linearGradient>
				<path fill="url(#SVGID_57_)" fill-opacity="0.8" d="M384.6,200.7c-33.6-2.1-40.8-9.8-40.8-9.8c0.8,22.3,23.9,26.5,43.8,28.5&#10;&#9;&#9;&#9;&#9;&#9;c25.4,2.5,27.3,39.9,27.3,39.9l1.4-14.6C416.3,244.6,420.4,202.9,384.6,200.7z"/>
				<path fill="#2FC4A6" fill-opacity="0.5" d="M414.9,259.2c0,0,1.1-19.4-7-30.6c-0.6-9.2-5.1-16.2-5.1-16.2&#10;&#9;&#9;&#9;&#9;&#9;c2.6,5.3,3.3,10.8,3.5,14.2c-1.4-1.5-3-2.8-4.9-3.8c-0.7-0.4-1.5-0.7-2.4-1.1c-2.6-10-10-16.7-10-16.7&#10;&#9;&#9;&#9;&#9;&#9;c3.3,3.3,7.1,14.5,7.6,15.8c-2.7-1-5.6-1.8-8.7-2.6c-8.1-5-11.4-15.1-11.4-15.1c-0.2,7.1,4,11.8,6.4,14c-3-0.7-6.2-1.4-9.2-2.1&#10;&#9;&#9;&#9;&#9;&#9;c-6-3.8-16.4-14-16.4-14c1.4,6.8,11.1,12.4,11.1,12.4l0.2,0.3c-10.4-2.9-19.7-6.7-23.2-14.2c0,0,1.4,12.9,22.6,18.1&#10;&#9;&#9;&#9;&#9;&#9;c-3.7,1-10.5,2.7-18.1,3.9c0,0,18.4-0.7,24.4-2.5c2.9,0.6,5.7,1.1,8.4,1.7c-3.4,2.1-13.4,7.5-26.8,8.5c0,0,18.9,0.5,30.5-7.6&#10;&#9;&#9;&#9;&#9;&#9;c3.4,0.9,6.5,1.9,9.4,3.3c-3.9,3-14.8,10.4-28.6,11c0,0,18.6,1.5,31.5-9.4c2.2,1.3,4.2,2.9,6,4.9c-3.3,2.4-11.5,8-20.6,9&#10;&#9;&#9;&#9;&#9;&#9;c0,0,15.7-0.3,22.5-6.7C410.8,239.1,413.7,247.1,414.9,259.2z"/>
				
					<linearGradient id="SVGID_58_" gradientUnits="userSpaceOnUse" x1="352.2994" y1="261.9066" x2="397.8871" y2="236.3459" gradientTransform="matrix(0.9953 9.710000e-02 -9.710000e-02 0.9953 37.9696 -62.7571)">
					<stop offset="0" style="stop-color:#B7EA5F"/>
					<stop offset="1" style="stop-color:#2FC4A6"/>
				</linearGradient>
				<path fill="url(#SVGID_58_)" d="M343.8,190.8c0,0-7.4,22.4,2.5,37.9c9.9,15.5,30,17.8,48.6,20.1c18.6,2.3,19,8,20,10.3&#10;&#9;&#9;&#9;&#9;&#9;c0,0-0.1-10.8-19.8-12.4c-19.7-1.7-37.8-6.1-46.6-19.1C339.7,214.7,343.8,190.8,343.8,190.8z"/>
			</g>
			<linearGradient id="SVGID_59_" gradientUnits="userSpaceOnUse" x1="430.8483" y1="273.7005" x2="430.8483" y2="220.0584">
				<stop offset="0" style="stop-color:#85613F"/>
				<stop offset="1" style="stop-color:#C49A6C"/>
			</linearGradient>
			<path fill="url(#SVGID_59_)" d="M431.6,220.1c0,0-0.8-0.4-7,6.8c-5.2,6-7,14.1-7.4,16.5c-4.1,15-1.7,29.3-1.7,29.3&#10;&#9;&#9;&#9;&#9;c0.8,0.2,1.6,0.2,2.4,0.3c0.1,0.5,0.2,0.7,0.2,0.7l4.3-0.3c0,0-0.1-0.2-0.2-0.4c1.1-0.1,1.8-0.2,1.8-0.2&#10;&#9;&#9;&#9;&#9;c-11.4-36.2,22.9-42.7,22.9-42.7C447.9,218.9,431.6,220.1,431.6,220.1z"/>
		</g>
	</g>
	<linearGradient id="SVGID_60_" gradientUnits="userSpaceOnUse" x1="420.0228" y1="442.7728" x2="420.0228" y2="249.7941">
		<stop offset="1.308000e-03" style="stop-color:#BF0E2A"/>
		<stop offset="1" style="stop-color:#FF5571"/>
	</linearGradient>
	<path fill="url(#SVGID_60_)" d="M521.7,270.6c-17.9-21.7-42-23.4-64-17.5c-14.8,4-37.4,20.9-37.4,20.9s-23.2-18.3-40.4-22.3&#10;&#9;&#9;c-20.5-4.8-44.7-0.8-61,19c-33.1,40.2-9.9,121.6,101.4,172.2C528.5,397.1,554.7,310.8,521.7,270.6z"/>
</g>
<g id="hand_1_" transform="matrix(4.14767820345901, 0, 0, 4.14767820345901, -1126.9114164792456, -787.0271497798016)">
	<g>
		<g>
			<path fill="#F8E6D5" d="M551.5,302.2c2.5-2.5,4.1-2.4,4.9-1.3c0.5,0.7,0.6,1.7,0.5,2.9c0,0.5-0.2,1-0.3,1.5&#10;&#9;&#9;&#9;&#9;c-1.1,3.4-4.3,8.3-7,11.2l-2.8-2.7c-1.5-1-0.3-6.1,4.1-10.9C551.1,302.6,551.3,302.4,551.5,302.2z"/>
		</g>
		<g>
			<path fill="#F8E6D5" d="M560.7,293.9c3.4-3,5,0.6,4.3,3.7c-0.7,3-2.9,9.4-5.5,11c-0.6,0-2.5-3.2-2.5-3.2l-0.4-0.1&#10;&#9;&#9;&#9;&#9;c0.2-0.6,0.3-1.1,0.3-1.5c0.1-1.1-0.1-2.2-0.5-2.9l0.1-0.1c0,0,0.7-3.4,3.6-6.4C560.3,294.3,560.5,294.1,560.7,293.9z"/>
		</g>
		<g>
			<path fill="#F8E6D5" d="M481.1,338.6c1,3,1.1,6.7,0.9,9.9c-0.2,3.1-0.9,7.3-2.6,7.1c-1.7-0.2-3.1,0-5.8-1&#10;&#9;&#9;&#9;&#9;c-3.3-0.5-4.7-2.6-4.5-3.8c0.2-1.2,0.1-6.4,2.4-12.1C473.7,332.9,480.1,335.6,481.1,338.6z"/>
		</g>
		<g>
			<path fill="#F8D5BD" d="M556.4,300.9c-0.8-1.1-2.4-1.2-4.9,1.3l-0.6-0.5c-1-0.2-2-0.1-3,0l-0.1-0.5c4.8-8.2,9.7-7.1,12-7l0.3,0.3&#10;&#9;&#9;&#9;&#9;c-2.9,2.9-3.6,6.4-3.6,6.4L556.4,300.9z"/>
		</g>
		<g>
			<path fill="#F8D5BD" d="M547.9,301.8c1-0.2,2-0.2,3,0l0.6,0.5c-0.2,0.2-0.4,0.4-0.6,0.7c-4.4,4.8-5.6,9.9-4.1,10.9l2.8,2.7&#10;&#9;&#9;&#9;&#9;c2.7-2.9,6-7.8,7-11.2l0.4,0.1c0,0,1.9,3.2,2.5,3.2l0.1,0.1c0.5,2.1-1.5,7.1-2.5,10.2c-0.7,2.3-1.6,5-2.6,9.8l0,0&#10;&#9;&#9;&#9;&#9;c1.1,3.1,1.9,9.9,2.2,16.7c0.4,6.4-0.5,16.9-0.6,20.1l0.3,0c1.4,2.7,1.8,6.3,1.8,12.2c0,5.9,0.4,8.1,0.4,11.8&#10;&#9;&#9;&#9;&#9;c0,3.8-1.4,6.1-4.1,8.4c-2.7,2.3-7,10.8-11.3,15.4c-4.3,4.7-7.5,12-11.7,17.6c-4.2,5.6-17.6,25.2-23.2,32.1&#10;&#9;&#9;&#9;&#9;c-5.6,6.9-5.6,14.1-4,18.3c1.6,4.2,6.5,11.8,10.7,23.4c4.2,11.6,28.1,58.6,33.5,67.6h-67.3c-0.9-3.5-7.5-25.4-12.4-40.4&#10;&#9;&#9;&#9;&#9;c-4.9-15-29.3-73-32.1-79.9c-2.8-6.9-1.9-13.2,1.5-26c3.4-12.7,6.1-23.1,9.7-28.6c3.6-5.5,7.1-9.3,10.7-19.2&#10;&#9;&#9;&#9;&#9;c3.6-9.9,5.9-18.5,7-25.4c1.1-6.9,3.9-13.3,6-14.5c-2.2,5.7-2.1,10.9-2.4,12.1c-0.2,1.2,1.2,3.4,4.5,3.8c2.7,1,4.2,0.8,5.8,1&#10;&#9;&#9;&#9;&#9;c1.7,0.2,2.4-3.9,2.6-7.1c0.2-3.1,0.1-6.8-0.9-9.9c4.2,4.6,6.8,15,4.6,25.1c-2.2,10.1-5,16.7-7.6,22.5c-1.8,3.9-3.4,8.9-4.9,13.6&#10;&#9;&#9;&#9;&#9;l0.3,0.1c3.4-4.4,7.6-8.3,8.5-10.5c1-2.2,5.6-10.7,10.9-16.1c5.4-5.4,9.1-12.7,11.9-17.7c2.8-5,8.3-10.5,9.3-12.7&#10;&#9;&#9;&#9;&#9;c1-2.2,4.8-9.7,7.7-14.3c3-4.6,6.2-7.6,7.9-11.9C531.6,312.8,540.4,303.1,547.9,301.8z"/>
		</g>
	</g>
	<g>
		<g>
			<path fill="#F0C6A9" d="M479.6,356.3c-0.1,0-0.1,0-0.2,0c-0.4-0.1-0.9-0.1-1.3-0.1c-1.2-0.1-2.6-0.2-4.6-0.9&#10;&#9;&#9;&#9;&#9;c-1.9-0.3-3.5-1.1-4.4-2.4c-0.5-0.7-0.8-1.6-0.7-2.3c0-0.2,0.1-0.7,0.1-1.2c0.2-2.2,0.5-6.4,2.3-11c1.3-3.4,3.9-3.8,5.2-3.8&#10;&#9;&#9;&#9;&#9;c2.5,0.1,5.1,1.8,5.8,3.8c1.1,3.4,1.1,7.4,0.9,10.2c-0.3,4-1,6.5-2.1,7.3C480.4,356.1,480,356.3,479.6,356.3z M475.9,335.9&#10;&#9;&#9;&#9;&#9;c-1.2,0-2.8,0.5-3.8,2.9c-1.7,4.4-2,8.4-2.2,10.6c0,0.6-0.1,1.1-0.1,1.4c0,0.2,0,0.7,0.4,1.2c0.3,0.4,1.3,1.5,3.5,1.8&#10;&#9;&#9;&#9;&#9;c0.1,0,0.1,0,0.1,0c1.9,0.7,3.1,0.8,4.3,0.8c0.5,0,0.9,0.1,1.4,0.1c0.1,0,0.1,0,0.2-0.1c0.6-0.5,1.3-2.4,1.6-6.3&#10;&#9;&#9;&#9;&#9;c0.2-2.6,0.2-6.4-0.9-9.6c-0.4-1.3-2.4-2.8-4.5-2.9C476,335.9,475.9,335.9,475.9,335.9z"/>
		</g>
		<g>
			<path fill="#F0C6A9" d="M547.8,572.8c-5.3-8.8-29.2-55.9-33.5-67.7c-2.6-7.2-5.6-13-7.7-17.1c-1.3-2.6-2.4-4.6-3-6.3&#10;&#9;&#9;&#9;&#9;c-1.7-4.6-1.5-12,4.1-19c3.3-4.1,9.4-12.7,14.8-20.3c3.6-5.1,6.7-9.5,8.4-11.8c1.8-2.4,3.5-5.2,5.1-7.9c2.2-3.6,4.2-7.1,6.7-9.7&#10;&#9;&#9;&#9;&#9;c2.2-2.3,4.4-5.7,6.3-8.7c2-3,3.7-5.6,5.1-6.8c2.8-2.4,3.9-4.6,3.9-7.9c0-1.7-0.1-3-0.1-4.5c-0.1-1.9-0.2-4-0.2-7.3&#10;&#9;&#9;&#9;&#9;c0-5.5-0.3-9.2-1.7-11.9l1.2-0.7c1.6,2.9,1.9,6.8,1.9,12.5c0,3.3,0.1,5.4,0.2,7.3c0.1,1.5,0.2,2.9,0.2,4.6c0,3.7-1.3,6.3-4.4,9&#10;&#9;&#9;&#9;&#9;c-1.2,1.1-3,3.7-4.8,6.5c-2,3-4.2,6.4-6.4,8.8c-2.4,2.6-4.4,5.9-6.5,9.5c-1.6,2.7-3.3,5.5-5.2,8c-1.7,2.2-4.8,6.6-8.4,11.7&#10;&#9;&#9;&#9;&#9;c-5.4,7.6-11.5,16.2-14.8,20.4c-5.3,6.5-5.5,13.4-3.9,17.6c0.6,1.5,1.6,3.6,2.9,6.1c2.2,4.2,5.1,10,7.8,17.3&#10;&#9;&#9;&#9;&#9;c4.3,11.8,28.2,58.7,33.4,67.5L547.8,572.8z"/>
		</g>
		<g>
			<path fill="#F0C6A9" d="M480.5,572.7c-1-3.6-7.6-25.5-12.4-40.4c-4-12.3-21.3-53.9-28.6-71.6c-1.7-4-2.9-7-3.4-8.2&#10;&#9;&#9;&#9;&#9;c-2.9-7.1-1.9-13.6,1.5-26.4l0.1-0.3c3.4-12.8,6.1-23,9.7-28.5c0.8-1.2,1.5-2.3,2.3-3.4c2.9-4.1,5.6-8,8.3-15.7&#10;&#9;&#9;&#9;&#9;c3.4-9.5,5.8-18.2,7-25.2c1.1-6.8,3.9-13.6,6.3-15l0.7,1.2c-1.7,1.1-4.5,7.3-5.6,14c-1.2,7.1-3.6,15.9-7.1,25.5&#10;&#9;&#9;&#9;&#9;c-2.8,7.9-5.7,12-8.5,16c-0.7,1.1-1.5,2.2-2.3,3.3c-3.5,5.4-6.1,15.4-9.5,28.1l-0.1,0.3c-3.3,12.5-4.2,18.8-1.5,25.5&#10;&#9;&#9;&#9;&#9;c0.5,1.2,1.7,4.2,3.4,8.2c7.4,17.8,24.6,59.4,28.7,71.7c4.9,14.8,11.5,36.8,12.5,40.4L480.5,572.7z"/>
		</g>
		<g>
			<path fill="#F0C6A9" d="M467,418.9c-0.1,0-0.2,0-0.4-0.1c-0.3-0.2-0.5-0.6-0.3-1c2.4-4.1,2.7-5.4,3.2-7.7&#10;&#9;&#9;&#9;&#9;c0.2-1.1,0.5-2.4,1.1-4.2l0.4-1.4c0.5-1.5,1-3.2,1.5-4.9c1.2-3.8,3-9.4,4.9-13.7c2.6-5.8,5.4-12.4,7.5-22.3&#10;&#9;&#9;&#9;&#9;c2.2-10.4-0.6-20.4-4.4-24.5c-0.3-0.3-0.2-0.7,0-1c0.3-0.3,0.7-0.2,1,0c5.4,5.9,6.5,17.7,4.7,25.8c-2.2,10.1-5,16.7-7.6,22.6&#10;&#9;&#9;&#9;&#9;c-1.9,4.2-3.7,9.7-4.8,13.5c-0.5,1.7-1,3.3-1.5,4.9l-0.4,1.4c-0.5,1.8-0.8,3.1-1.1,4.2c-0.5,2.4-0.9,3.8-3.4,8.1&#10;&#9;&#9;&#9;&#9;C467.5,418.8,467.3,418.9,467,418.9z"/>
		</g>
		<g>
			<path fill="#F0C6A9" d="M473.6,400.6c-0.2,0-0.3,0-0.4-0.1c-0.3-0.2-0.4-0.7-0.1-1c1.4-1.8,3-3.6,4.4-5.2c1.9-2.2,3.5-4,4.1-5.2&#10;&#9;&#9;&#9;&#9;c0.9-2,5.5-10.7,11.1-16.3c4.7-4.7,8.3-11.2,10.9-15.9c0.3-0.6,0.6-1.1,0.9-1.6c1.6-2.8,4.1-5.9,6.1-8.3c1.5-1.9,2.8-3.5,3.2-4.3&#10;&#9;&#9;&#9;&#9;c1.1-2.4,4.9-9.9,7.8-14.4c1.1-1.7,2.2-3.1,3.3-4.6c1.9-2.4,3.5-4.6,4.6-7.2c1.6-3.8,10.4-13.9,18.4-15.3c1.2-0.2,2.3-0.2,3.3,0&#10;&#9;&#9;&#9;&#9;c0.4,0.1,0.6,0.4,0.6,0.8c-0.1,0.4-0.4,0.6-0.8,0.6c-0.8-0.1-1.8-0.1-2.8,0c-7.4,1.3-15.9,10.9-17.3,14.4&#10;&#9;&#9;&#9;&#9;c-1.2,2.9-2.9,5.1-4.8,7.6c-1.1,1.4-2.2,2.8-3.2,4.5c-2.9,4.4-6.6,11.9-7.7,14.2c-0.5,1-1.8,2.6-3.4,4.7c-2,2.4-4.4,5.4-5.9,8.1&#10;&#9;&#9;&#9;&#9;c-0.3,0.5-0.6,1.1-0.9,1.6c-2.6,4.8-6.3,11.3-11.1,16.2c-5.4,5.4-9.9,14-10.8,15.9c-0.6,1.4-2.2,3.2-4.3,5.5&#10;&#9;&#9;&#9;&#9;c-1.4,1.6-2.9,3.3-4.3,5.1C474,400.5,473.8,400.6,473.6,400.6z"/>
		</g>
		<g>
			<path fill="#F0C6A9" d="M549.6,317.2c-0.2,0-0.4-0.1-0.5-0.2l-2.8-2.7c-0.3-0.3-0.7-0.8-0.8-1.7c-0.2-2.2,1.2-6.2,4.9-10.2&#10;&#9;&#9;&#9;&#9;c0.2-0.2,0.5-0.5,0.7-0.7c0,0,0,0,0,0c1.6-1.6,3-2.3,4.3-2.2c0.7,0.1,1.3,0.4,1.8,1.1c0.6,0.8,0.8,2,0.7,3.3&#10;&#9;&#9;&#9;&#9;c0,0.5-0.2,1.1-0.4,1.7c-1.1,3.6-4.5,8.6-7.2,11.4C550,317.2,549.8,317.2,549.6,317.2C549.6,317.2,549.6,317.2,549.6,317.2z&#10;&#9;&#9;&#9;&#9; M552,302.7c-0.2,0.2-0.4,0.4-0.6,0.6c-3.2,3.5-4.7,7.3-4.5,9.1c0,0.4,0.1,0.6,0.3,0.7c0,0,0.1,0,0.1,0.1l2.3,2.2&#10;&#9;&#9;&#9;&#9;c2.5-2.8,5.4-7.2,6.4-10.4c0.2-0.5,0.3-1,0.3-1.4c0.1-1-0.1-1.9-0.4-2.4c-0.2-0.3-0.4-0.4-0.7-0.5&#10;&#9;&#9;&#9;&#9;C554.7,300.8,553.7,301,552,302.7z"/>
		</g>
		<g>
			<path fill="#F0C6A9" d="M559.6,309.4c-0.3,0-1,0-3.1-3.5c-0.2-0.3-0.1-0.8,0.2-1c0.3-0.2,0.8-0.1,1,0.2c0.6,1,1.4,2.2,1.9,2.7&#10;&#9;&#9;&#9;&#9;c2-1.8,4-7,4.8-10.3c0.4-1.6,0-3.3-0.8-3.8c-0.7-0.4-1.8,0.3-2.3,0.8c-0.2,0.2-0.4,0.4-0.6,0.5c-2.7,2.8-3.4,6-3.4,6&#10;&#9;&#9;&#9;&#9;c-0.1,0.4-0.5,0.6-0.8,0.5c-0.4-0.1-0.6-0.5-0.5-0.8c0-0.1,0.8-3.7,3.8-6.7c0.2-0.2,0.4-0.4,0.6-0.6c1.9-1.8,3.3-1.4,4-1&#10;&#9;&#9;&#9;&#9;c1.6,0.9,1.9,3.5,1.5,5.4c-0.6,2.5-2.8,9.5-5.8,11.5C559.9,309.3,559.7,309.4,559.6,309.4z"/>
		</g>
		<g>
			<path fill="#F0C6A9" d="M547.8,302c-0.1,0-0.2,0-0.4-0.1c-0.3-0.2-0.4-0.6-0.3-1c4.7-8,9.5-7.6,12.1-7.4c0.2,0,0.4,0,0.6,0&#10;&#9;&#9;&#9;&#9;c0.4,0,0.7,0.3,0.7,0.7c0,0.4-0.3,0.7-0.7,0.7c-0.2,0-0.4,0-0.6,0c-2.4-0.2-6.5-0.5-10.7,6.7C548.3,301.9,548.1,302,547.8,302z"/>
		</g>
		<g>
			<path fill="#F0C6A9" d="M515.2,386.3c-0.3,0-0.6-0.2-0.7-0.5c-1.2-4.8,13.4-27.1,13.6-27.4c2.8-4.1,4.6-7.2,5.9-11.6&#10;&#9;&#9;&#9;&#9;c1.4-4.6,6.1-14.8,7.9-17.4c1.7-2.5,6.1-9.8,7.4-13.1c0.1-0.4,0.6-0.5,0.9-0.4c0.4,0.1,0.5,0.6,0.4,0.9&#10;&#9;&#9;&#9;&#9;c-1.4,3.5-5.7,10.8-7.5,13.4c-1.7,2.5-6.4,12.6-7.7,17c-1.3,4.6-3.2,7.7-6.1,12c-4.2,6.2-14.1,23.1-13.4,26.2&#10;&#9;&#9;&#9;&#9;c0.1,0.4-0.1,0.8-0.5,0.9C515.4,386.3,515.3,386.3,515.2,386.3z"/>
		</g>
		<g>
			<path fill="#F0C6A9" d="M532.1,390c-0.1,0-0.2,0-0.3-0.1c-0.4-0.1-0.5-0.6-0.4-0.9c1.8-4.3,6.4-12.8,10.5-20.4&#10;&#9;&#9;&#9;&#9;c2.1-3.9,4.1-7.5,5.4-10c2.7-5.2,3.4-10.8,4.3-16.6c0.3-2.3,0.7-4.7,1.1-7.3c0.4-2.2,0.8-4.2,1.2-6c1-4.8,1.8-7.4,2.6-9.9&#10;&#9;&#9;&#9;&#9;c0.2-0.6,0.4-1.3,0.7-2c0.9-2.7,2.1-6.3,1.8-7.8c-0.1-0.4,0.1-0.8,0.5-0.9c0.4-0.1,0.8,0.1,0.9,0.5c0.4,1.9-0.8,5.5-1.8,8.6&#10;&#9;&#9;&#9;&#9;c-0.2,0.7-0.5,1.4-0.7,2c-0.8,2.5-1.6,5.1-2.6,9.8c-0.4,1.8-0.8,3.8-1.2,6c-0.5,2.5-0.8,4.9-1.1,7.2c-0.8,6-1.6,11.6-4.4,17.1&#10;&#9;&#9;&#9;&#9;c-1.3,2.5-3.3,6.2-5.4,10.1c-4.1,7.5-8.7,16-10.4,20.2C532.6,389.8,532.4,390,532.1,390z"/>
		</g>
		<g>
			<path fill="#F0C6A9" d="M537.7,402.9c-0.2,0-0.3-0.1-0.5-0.2c-0.3-0.3-0.3-0.7-0.1-1c5.3-6.1,11.7-17.7,14.7-23.3l0.4-0.8&#10;&#9;&#9;&#9;&#9;c2.1-3.9,3.2-7.8,3.2-11.5c0-0.1,0-0.3,0-0.5c0-0.8,0.1-2.1,0.2-3.8c0.3-4.6,0.7-11.5,0.4-16.3c-0.4-7.8-1.2-13.8-2.2-16.5&#10;&#9;&#9;&#9;&#9;c-0.1-0.4,0.1-0.8,0.4-0.9c0.4-0.1,0.8,0.1,0.9,0.4c1.4,4,2.1,13.2,2.3,16.9c0.3,4.8-0.1,11.8-0.4,16.4c-0.1,1.6-0.2,2.9-0.2,3.7&#10;&#9;&#9;&#9;&#9;c0,0.2,0,0.3,0,0.5c0,4-1.1,8.1-3.4,12.2l-0.4,0.8c-3.1,5.6-9.6,17.3-14.9,23.6C538,402.9,537.9,402.9,537.7,402.9z"/>
		</g>
	</g>
</g>
<g id="hand" transform="matrix(4.14767820345901, 0, 0, 4.14767820345901, -1126.9114164792456, -787.0271497798016)">
	<g>
		<g>
			<path fill="#F8E6D5" d="M288.5,302.2c-2.5-2.5-4.1-2.4-4.9-1.3c-0.5,0.7-0.6,1.7-0.5,2.9c0,0.5,0.2,1,0.3,1.5&#10;&#9;&#9;&#9;&#9;c1.1,3.4,4.3,8.3,7,11.2l2.8-2.7c1.5-1,0.3-6.1-4.1-10.9C288.9,302.6,288.7,302.4,288.5,302.2z"/>
		</g>
		<g>
			<path fill="#F8E6D5" d="M279.3,293.9c-3.4-3-5,0.6-4.3,3.7c0.7,3,2.9,9.4,5.5,11c0.6,0,2.5-3.2,2.5-3.2l0.4-0.1&#10;&#9;&#9;&#9;&#9;c-0.2-0.6-0.3-1.1-0.3-1.5c-0.1-1.1,0.1-2.2,0.5-2.9l-0.1-0.1c0,0-0.7-3.4-3.6-6.4C279.7,294.3,279.5,294.1,279.3,293.9z"/>
		</g>
		<g>
			<path fill="#F8E6D5" d="M358.9,338.6c-1,3-1.1,6.7-0.9,9.9c0.2,3.1,0.9,7.3,2.6,7.1c1.7-0.2,3.1,0,5.8-1c3.3-0.5,4.7-2.6,4.5-3.8&#10;&#9;&#9;&#9;&#9;c-0.2-1.2-0.1-6.4-2.4-12.1C366.3,332.9,359.9,335.6,358.9,338.6z"/>
		</g>
		<g>
			<path fill="#F8D5BD" d="M283.6,300.9c0.8-1.1,2.4-1.2,4.9,1.3l0.6-0.5c1-0.2,2-0.1,3,0l0.1-0.5c-4.8-8.2-9.7-7.1-12-7l-0.3,0.3&#10;&#9;&#9;&#9;&#9;c2.9,2.9,3.6,6.4,3.6,6.4L283.6,300.9z"/>
		</g>
		<g>
			<path fill="#F8D5BD" d="M292.1,301.8c-1-0.2-2-0.2-3,0l-0.6,0.5c0.2,0.2,0.4,0.4,0.6,0.7c4.4,4.8,5.6,9.9,4.1,10.9l-2.8,2.7&#10;&#9;&#9;&#9;&#9;c-2.7-2.9-6-7.8-7-11.2l-0.4,0.1c0,0-1.9,3.2-2.5,3.2l-0.1,0.1c-0.5,2.1,1.5,7.1,2.5,10.2c0.7,2.3,1.6,5,2.6,9.8l0,0&#10;&#9;&#9;&#9;&#9;c-1.1,3.1-1.9,9.9-2.2,16.7c-0.4,6.4,0.5,16.9,0.6,20.1l-0.3,0c-1.4,2.7-1.8,6.3-1.8,12.2c0,5.9-0.4,8.1-0.4,11.8&#10;&#9;&#9;&#9;&#9;c0,3.8,1.4,6.1,4.1,8.4c2.7,2.3,7,10.8,11.3,15.4c4.3,4.7,7.5,12,11.7,17.6c4.2,5.6,17.6,25.2,23.2,32.1c5.6,6.9,5.6,14.1,4,18.3&#10;&#9;&#9;&#9;&#9;c-1.6,4.2-6.5,11.8-10.7,23.4c-4.2,11.6-28.1,58.6-33.5,67.6h67.3c0.9-3.5,7.5-25.4,12.4-40.4c4.9-15,29.3-73,32.1-79.9&#10;&#9;&#9;&#9;&#9;c2.8-6.9,1.9-13.2-1.5-26c-3.4-12.7-6.1-23.1-9.7-28.6c-3.6-5.5-7.1-9.3-10.7-19.2c-3.6-9.9-5.9-18.5-7-25.4&#10;&#9;&#9;&#9;&#9;c-1.1-6.9-3.9-13.3-6-14.5c2.2,5.7,2.1,10.9,2.4,12.1c0.2,1.2-1.2,3.4-4.5,3.8c-2.7,1-4.2,0.8-5.8,1c-1.7,0.2-2.4-3.9-2.6-7.1&#10;&#9;&#9;&#9;&#9;c-0.2-3.1-0.1-6.8,0.9-9.9c-4.2,4.6-6.8,15-4.6,25.1c2.2,10.1,5,16.7,7.6,22.5c1.8,3.9,3.4,8.9,4.9,13.6l-0.3,0.1&#10;&#9;&#9;&#9;&#9;c-3.4-4.4-7.6-8.3-8.5-10.5c-1-2.2-5.6-10.7-10.9-16.1s-9.1-12.7-11.9-17.7c-2.8-5-8.3-10.5-9.3-12.7c-1-2.2-4.8-9.7-7.7-14.3&#10;&#9;&#9;&#9;&#9;c-3-4.6-6.2-7.6-7.9-11.9C308.4,312.8,299.6,303.1,292.1,301.8z"/>
		</g>
	</g>
	<g>
		<g>
			<path fill="#F0C6A9" d="M360.4,356.3c-0.4,0-0.8-0.1-1.1-0.4c-1.1-0.9-1.8-3.4-2.1-7.3c-0.2-2.8-0.2-6.8,0.9-10.2&#10;&#9;&#9;&#9;&#9;c0.7-2.1,3.3-3.8,5.8-3.8c1.4,0,3.9,0.4,5.2,3.8c1.8,4.6,2.1,8.8,2.3,11c0,0.6,0.1,1,0.1,1.2c0.1,0.7-0.1,1.5-0.7,2.3&#10;&#9;&#9;&#9;&#9;c-0.9,1.2-2.5,2.1-4.4,2.4c-2,0.7-3.4,0.8-4.6,0.9c-0.4,0-0.9,0.1-1.3,0.1C360.6,356.3,360.5,356.3,360.4,356.3z M364.1,335.9&#10;&#9;&#9;&#9;&#9;c0,0-0.1,0-0.1,0c-2.1,0.1-4,1.6-4.5,2.9c-1,3.2-1,7-0.9,9.6c0.3,4,1,5.9,1.6,6.3c0.1,0.1,0.2,0.1,0.2,0.1&#10;&#9;&#9;&#9;&#9;c0.5-0.1,0.9-0.1,1.4-0.1c1.2-0.1,2.4-0.2,4.3-0.8c0,0,0.1,0,0.1,0c2.2-0.3,3.2-1.4,3.5-1.8c0.4-0.5,0.4-0.9,0.4-1.2&#10;&#9;&#9;&#9;&#9;c-0.1-0.3-0.1-0.7-0.1-1.4c-0.2-2.2-0.5-6.2-2.2-10.6C366.9,336.5,365.3,335.9,364.1,335.9z"/>
		</g>
		<g>
			<path fill="#F0C6A9" d="M292.2,572.8l-1.2-0.7c5.2-8.7,29.1-55.7,33.4-67.5c2.7-7.3,5.6-13.1,7.8-17.3c1.3-2.6,2.3-4.6,2.9-6.1&#10;&#9;&#9;&#9;&#9;c1.6-4.2,1.4-11.1-3.9-17.6c-3.4-4.2-9.4-12.8-14.8-20.4c-3.6-5.1-6.7-9.5-8.4-11.7c-1.9-2.5-3.6-5.3-5.2-8&#10;&#9;&#9;&#9;&#9;c-2.1-3.6-4.1-6.9-6.5-9.5c-2.2-2.4-4.5-5.8-6.4-8.8c-1.8-2.8-3.6-5.4-4.8-6.5c-3.1-2.7-4.4-5.3-4.4-9c0-1.7,0.1-3.1,0.2-4.6&#10;&#9;&#9;&#9;&#9;c0.1-1.9,0.2-4,0.2-7.3c0-5.7,0.3-9.6,1.9-12.5l1.2,0.7c-1.4,2.7-1.7,6.4-1.7,11.9c0,3.3-0.1,5.4-0.2,7.3&#10;&#9;&#9;&#9;&#9;c-0.1,1.5-0.1,2.8-0.1,4.5c0,3.3,1.1,5.5,3.9,7.9c1.4,1.2,3.1,3.8,5.1,6.8c1.9,3,4.1,6.3,6.3,8.7c2.5,2.7,4.5,6.1,6.7,9.7&#10;&#9;&#9;&#9;&#9;c1.6,2.7,3.3,5.5,5.1,7.9c1.7,2.2,4.8,6.7,8.4,11.8c5.4,7.6,11.4,16.2,14.8,20.3c5.6,7,5.8,14.4,4.1,19c-0.6,1.6-1.7,3.7-3,6.3&#10;&#9;&#9;&#9;&#9;c-2.1,4.2-5.1,9.9-7.7,17.1C321.4,517,297.4,564.1,292.2,572.8z"/>
		</g>
		<g>
			<path fill="#F0C6A9" d="M359.5,572.7l-1.4-0.4c1-3.6,7.6-25.6,12.5-40.4c4-12.3,21.3-53.9,28.7-71.7c1.7-4,2.9-7,3.4-8.2&#10;&#9;&#9;&#9;&#9;c2.7-6.7,1.8-13-1.5-25.5l-0.1-0.3c-3.4-12.7-6-22.7-9.5-28.1c-0.8-1.2-1.5-2.3-2.3-3.3c-2.8-4-5.7-8.2-8.5-16&#10;&#9;&#9;&#9;&#9;c-3.5-9.5-5.9-18.4-7.1-25.5c-1.1-6.7-3.9-12.9-5.6-14l0.7-1.2c2.3,1.4,5.2,8.1,6.3,15c1.2,7,3.6,15.8,7,25.2&#10;&#9;&#9;&#9;&#9;c2.8,7.7,5.5,11.6,8.3,15.7c0.8,1.1,1.5,2.2,2.3,3.4c3.6,5.5,6.3,15.7,9.7,28.5l0.1,0.3c3.4,12.8,4.3,19.3,1.5,26.4&#10;&#9;&#9;&#9;&#9;c-0.5,1.2-1.7,4.2-3.4,8.2c-7.4,17.8-24.6,59.3-28.6,71.6C367.1,547.1,360.5,569.1,359.5,572.7z"/>
		</g>
		<g>
			<path fill="#F0C6A9" d="M373,418.9c-0.2,0-0.5-0.1-0.6-0.4c-2.5-4.3-2.8-5.8-3.4-8.1c-0.2-1-0.5-2.3-1.1-4.2l-0.4-1.4&#10;&#9;&#9;&#9;&#9;c-0.5-1.5-1-3.2-1.5-4.9c-1.2-3.8-3-9.3-4.8-13.5c-2.7-5.9-5.4-12.5-7.6-22.6c-1.7-8.1-0.7-19.9,4.7-25.8c0.3-0.3,0.7-0.3,1,0&#10;&#9;&#9;&#9;&#9;c0.3,0.3,0.3,0.7,0,1c-3.8,4.2-6.6,14.2-4.4,24.5c2.1,9.9,4.9,16.5,7.5,22.3c1.9,4.3,3.7,9.9,4.9,13.7c0.5,1.7,1,3.4,1.5,4.9&#10;&#9;&#9;&#9;&#9;l0.4,1.4c0.6,1.9,0.9,3.2,1.1,4.2c0.5,2.3,0.8,3.6,3.2,7.7c0.2,0.3,0.1,0.8-0.3,1C373.2,418.9,373.1,418.9,373,418.9z"/>
		</g>
		<g>
			<path fill="#F0C6A9" d="M366.4,400.6c-0.2,0-0.4-0.1-0.6-0.3c-1.4-1.8-3-3.6-4.3-5.1c-2.1-2.3-3.7-4.2-4.3-5.5&#10;&#9;&#9;&#9;&#9;c-0.8-1.9-5.4-10.5-10.8-15.9c-4.9-4.9-8.5-11.4-11.1-16.2c-0.3-0.6-0.6-1.1-0.9-1.6c-1.5-2.7-4-5.7-5.9-8.1&#10;&#9;&#9;&#9;&#9;c-1.7-2-3-3.6-3.4-4.7c-1.1-2.4-4.8-9.8-7.7-14.2c-1.1-1.6-2.2-3.1-3.2-4.5c-1.9-2.4-3.6-4.7-4.8-7.6&#10;&#9;&#9;&#9;&#9;c-1.4-3.5-9.9-13.1-17.3-14.4c-1-0.2-1.9-0.2-2.8,0c-0.4,0.1-0.8-0.2-0.8-0.6c-0.1-0.4,0.2-0.8,0.6-0.8c1-0.2,2.1-0.2,3.3,0&#10;&#9;&#9;&#9;&#9;c8,1.4,16.8,11.5,18.4,15.3c1.1,2.7,2.7,4.8,4.6,7.2c1.1,1.4,2.2,2.9,3.3,4.6c2.9,4.5,6.7,12,7.8,14.4c0.4,0.9,1.7,2.5,3.2,4.3&#10;&#9;&#9;&#9;&#9;c2,2.4,4.5,5.5,6.1,8.3c0.3,0.5,0.6,1.1,0.9,1.7c2.6,4.7,6.2,11.2,10.9,15.9c5.6,5.6,10.2,14.3,11.1,16.3c0.5,1.2,2.2,3,4.1,5.2&#10;&#9;&#9;&#9;&#9;c1.4,1.6,3,3.4,4.4,5.2c0.2,0.3,0.2,0.8-0.1,1C366.7,400.6,366.6,400.6,366.4,400.6z"/>
		</g>
		<g>
			<path fill="#F0C6A9" d="M290.4,317.2C290.4,317.2,290.4,317.2,290.4,317.2c-0.2,0-0.4-0.1-0.5-0.2c-2.6-2.8-6.1-7.9-7.2-11.4&#10;&#9;&#9;&#9;&#9;c-0.2-0.6-0.3-1.2-0.4-1.7c-0.1-1.4,0.1-2.5,0.7-3.3c0.4-0.6,1-1,1.7-1.1c1.2-0.1,2.6,0.6,4.3,2.2c0,0,0,0,0,0&#10;&#9;&#9;&#9;&#9;c0.2,0.2,0.4,0.4,0.7,0.7c3.7,4,5.1,8.1,4.9,10.2c-0.1,1-0.5,1.5-0.8,1.7l-2.8,2.7C290.8,317.2,290.6,317.2,290.4,317.2z&#10;&#9;&#9;&#9;&#9; M285,300.9c0,0-0.1,0-0.1,0c-0.3,0-0.5,0.2-0.7,0.5c-0.4,0.5-0.5,1.4-0.4,2.4c0,0.4,0.1,0.9,0.3,1.4c1,3.2,3.9,7.6,6.4,10.4&#10;&#9;&#9;&#9;&#9;l2.3-2.2c0,0,0.1,0,0.1-0.1c0.1-0.1,0.3-0.4,0.3-0.7c0.2-1.9-1.3-5.6-4.5-9.1c-0.2-0.2-0.4-0.5-0.6-0.6&#10;&#9;&#9;&#9;&#9;C286.4,301.2,285.5,300.9,285,300.9z"/>
		</g>
		<g>
			<path fill="#F0C6A9" d="M280.4,309.4c-0.1,0-0.3,0-0.4-0.1c-2.9-2-5.2-8.9-5.8-11.5c-0.5-1.9-0.1-4.4,1.5-5.4c0.7-0.4,2-0.8,4,1&#10;&#9;&#9;&#9;&#9;c0.2,0.2,0.4,0.4,0.6,0.6c3,3,3.8,6.5,3.8,6.7c0.1,0.4-0.2,0.8-0.5,0.8c-0.4,0.1-0.8-0.2-0.8-0.5c0,0-0.7-3.3-3.4-6&#10;&#9;&#9;&#9;&#9;c-0.2-0.2-0.4-0.4-0.6-0.6c-0.5-0.5-1.6-1.3-2.3-0.8c-0.8,0.5-1.2,2.2-0.8,3.8c0.8,3.3,2.8,8.6,4.8,10.3c0.5-0.5,1.3-1.6,1.9-2.7&#10;&#9;&#9;&#9;&#9;c0.2-0.3,0.6-0.4,1-0.2c0.3,0.2,0.4,0.6,0.2,1C281.4,309.4,280.7,309.4,280.4,309.4z"/>
		</g>
		<g>
			<path fill="#F0C6A9" d="M292.2,302c-0.2,0-0.5-0.1-0.6-0.3c-4.2-7.2-8.3-6.9-10.7-6.7c-0.2,0-0.4,0-0.6,0c-0.4,0-0.7-0.3-0.7-0.7&#10;&#9;&#9;&#9;&#9;s0.3-0.7,0.7-0.7c0.2,0,0.4,0,0.6,0c2.6-0.2,7.4-0.5,12.1,7.4c0.2,0.3,0.1,0.8-0.3,1C292.4,302,292.3,302,292.2,302z"/>
		</g>
		<g>
			<path fill="#F0C6A9" d="M324.8,386.3c-0.1,0-0.1,0-0.2,0c-0.4-0.1-0.6-0.5-0.5-0.9c0.8-3.1-9.2-20-13.4-26.2&#10;&#9;&#9;&#9;&#9;c-2.9-4.3-4.7-7.4-6.1-12c-1.3-4.4-6-14.5-7.7-17c-1.8-2.6-6.2-9.9-7.5-13.4c-0.1-0.4,0-0.8,0.4-0.9c0.4-0.1,0.8,0,0.9,0.4&#10;&#9;&#9;&#9;&#9;c1.3,3.3,5.6,10.6,7.4,13.1c1.8,2.6,6.5,12.8,7.9,17.4c1.3,4.4,3.1,7.4,5.9,11.6c0.1,0.2,14.7,22.6,13.6,27.4&#10;&#9;&#9;&#9;&#9;C325.4,386.1,325.1,386.3,324.8,386.3z"/>
		</g>
		<g>
			<path fill="#F0C6A9" d="M307.9,390c-0.3,0-0.5-0.2-0.7-0.4c-1.7-4.2-6.4-12.7-10.4-20.2c-2.1-3.9-4.1-7.5-5.4-10.1&#10;&#9;&#9;&#9;&#9;c-2.8-5.5-3.6-11.1-4.4-17.1c-0.3-2.3-0.7-4.7-1.1-7.2c-0.4-2.2-0.8-4.2-1.2-6c-1-4.7-1.8-7.3-2.6-9.8c-0.2-0.6-0.4-1.3-0.7-2&#10;&#9;&#9;&#9;&#9;c-1.1-3.1-2.3-6.7-1.8-8.6c0.1-0.4,0.5-0.6,0.9-0.5c0.4,0.1,0.6,0.5,0.5,0.9c-0.4,1.5,0.9,5.2,1.8,7.8c0.2,0.7,0.5,1.4,0.7,2&#10;&#9;&#9;&#9;&#9;c0.8,2.5,1.6,5.1,2.6,9.9c0.4,1.8,0.8,3.8,1.2,6c0.5,2.5,0.8,4.9,1.1,7.3c0.8,5.9,1.6,11.4,4.3,16.6c1.3,2.5,3.3,6.2,5.4,10&#10;&#9;&#9;&#9;&#9;c4.1,7.6,8.7,16.1,10.5,20.4c0.1,0.4,0,0.8-0.4,0.9C308.1,390,308,390,307.9,390z"/>
		</g>
		<g>
			<path fill="#F0C6A9" d="M302.3,402.9c-0.2,0-0.4-0.1-0.5-0.2c-5.4-6.2-11.8-17.9-14.9-23.6l-0.4-0.8c-2.3-4.1-3.4-8.2-3.4-12.2&#10;&#9;&#9;&#9;&#9;c0-0.1,0-0.3,0-0.5c0-0.8-0.1-2.1-0.2-3.7c-0.3-4.6-0.7-11.6-0.4-16.4c0.2-3.8,0.8-12.9,2.3-16.9c0.1-0.4,0.5-0.6,0.9-0.4&#10;&#9;&#9;&#9;&#9;c0.4,0.1,0.6,0.5,0.4,0.9c-1,2.7-1.8,8.7-2.2,16.5c-0.3,4.7,0.1,11.7,0.4,16.3c0.1,1.6,0.2,2.9,0.2,3.8c0,0.2,0,0.4,0,0.5&#10;&#9;&#9;&#9;&#9;c0,3.8,1.1,7.7,3.2,11.5l0.4,0.8c3.1,5.6,9.5,17.2,14.7,23.3c0.3,0.3,0.2,0.7-0.1,1C302.7,402.9,302.5,402.9,302.3,402.9z"/>
		</g>
	</g>
</g>


</svg>