<svg xmlns="http://www.w3.org/2000/svg" viewBox="0 0 70.26 47.97"><defs><style>.cls-1{fill:none;stroke:#97b173;stroke-miterlimit:10;stroke-width:1.68px;}.cls-2{fill:#cbee9a;}.cls-3{fill:#fff;}</style></defs><title>Asset 7</title><g id="Layer_2" data-name="Layer 2"><g id="Layer_2-2" data-name="Layer 2"><path class="cls-1" d="M23.82,14a44.76,44.76,0,0,1,4.45-6.24c2.31-2.65,5-5.15,8.44-6.17A15.06,15.06,0,0,1,42.59.91a15.82,15.82,0,0,1,5.16,1.56A59.79,59.79,0,0,1,53.6,5.74l5.95,3.6,7.34,4.45.49.29a6.28,6.28,0,0,0-1.66,4.85A6.09,6.09,0,0,0,66,20.27a1.61,1.61,0,0,0,.64.94c.88.41,1.69-1.49,1.95-2,.05-.11.76-1.86.76-1.86s0,.45,0,.5c-.13,1.54-.4,3.08-.64,4.61a31.46,31.46,0,0,1-4.89,12.16,35.6,35.6,0,0,1-5.35,6.52,21.59,21.59,0,0,1-11.18,5.73,21.15,21.15,0,0,1-9.77-.68,28.4,28.4,0,0,1-7.13-3.48c-1.88-1.2-3.74-2.46-5.59-3.72S21,36.34,19.11,35.11a1.48,1.48,0,0,0-2.17.62c-.21.49-.3,1-.51,1.53a8.9,8.9,0,0,1-.8,1.45A8.5,8.5,0,0,1,14.52,40a3.54,3.54,0,0,1-.77.63,5.89,5.89,0,0,1-.8.29L6.09,43.36l-.55.2c.13-1.64.2-3.31.41-4.94a9.4,9.4,0,0,1,.49-1.7,7.14,7.14,0,0,1,.91-2,15.57,15.57,0,0,1,2.42-2.38,2.17,2.17,0,0,1,.39-.35,1.49,1.49,0,0,1,.43-.07l1.5-.22A11.09,11.09,0,0,1,7,30.42a15.35,15.35,0,0,1-4.25-4.25,15,15,0,0,1-1.52-2.56l4.36-.87c.57-.11,1.15-.25,1.73-.32a5.56,5.56,0,0,1,3.55.83l2.26,1.34c.69.41,1.37.87,2.07,1.25.92.5,2.07-.38,2.68-1.05A15.7,15.7,0,0,0,19.72,22C21.2,19.41,22.41,16.65,23.82,14Z"/><path class="cls-2" d="M23.82,14a44.76,44.76,0,0,1,4.45-6.24c2.31-2.65,5-5.15,8.44-6.17A15.06,15.06,0,0,1,42.59.91a15.82,15.82,0,0,1,5.16,1.56A59.79,59.79,0,0,1,53.6,5.74l5.95,3.6,7.34,4.45.49.29a6.28,6.28,0,0,0-1.66,4.85A6.09,6.09,0,0,0,66,20.27a1.61,1.61,0,0,0,.64.94c.88.41,1.69-1.49,1.95-2,.05-.11.76-1.86.76-1.86s0,.45,0,.5c-.13,1.54-.4,3.08-.64,4.61a31.46,31.46,0,0,1-4.89,12.16,35.6,35.6,0,0,1-5.35,6.52,21.59,21.59,0,0,1-11.18,5.73,21.15,21.15,0,0,1-9.77-.68,28.4,28.4,0,0,1-7.13-3.48c-1.88-1.2-3.74-2.46-5.59-3.72S21,36.34,19.11,35.11a1.48,1.48,0,0,0-2.17.62c-.21.49-.3,1-.51,1.53a8.9,8.9,0,0,1-.8,1.45A8.5,8.5,0,0,1,14.52,40a3.54,3.54,0,0,1-.77.63,5.89,5.89,0,0,1-.8.29L6.09,43.36l-.55.2c.13-1.64.2-3.31.41-4.94a9.4,9.4,0,0,1,.49-1.7,7.14,7.14,0,0,1,.91-2,15.57,15.57,0,0,1,2.42-2.38,2.17,2.17,0,0,1,.39-.35,1.49,1.49,0,0,1,.43-.07l1.5-.22A11.09,11.09,0,0,1,7,30.42a15.35,15.35,0,0,1-4.25-4.25,15,15,0,0,1-1.52-2.56l4.36-.87c.57-.11,1.15-.25,1.73-.32a5.56,5.56,0,0,1,3.55.83l2.26,1.34c.69.41,1.37.87,2.07,1.25.92.5,2.07-.38,2.68-1.05A15.7,15.7,0,0,0,19.72,22C21.2,19.41,22.41,16.65,23.82,14Z"/><path class="cls-3" d="M15.86,15.79l2.46,0-.13,13.42,4,0,0,2.24-6.51-.06Z"/><path class="cls-3" d="M24,30.71A4.06,4.06,0,0,1,23,27.8l.07-8.23a4.09,4.09,0,0,1,1-2.9,3.57,3.57,0,0,1,2.78-1,3.59,3.59,0,0,1,2.76,1,4.08,4.08,0,0,1,.94,2.92l-.08,8.22a4.11,4.11,0,0,1-1,2.9,3.6,3.6,0,0,1-2.79,1A3.62,3.62,0,0,1,24,30.71ZM28,28l.08-8.54q0-1.55-1.26-1.56c-.85,0-1.28.51-1.29,1.53L25.49,28c0,1,.41,1.54,1.26,1.55S28,29,28,28Z"/><path class="cls-3" d="M33.94,16l3.34,0,2.4,15.67-2.46,0-.42-3.12v.05l-2.79,0-.48,3.06-2.28,0Zm2.59,10.49-1-7.74h0l-1.14,7.72Z"/><path class="cls-3" d="M40.14,16l2.48,0,1.5,12.16h0l1.72-12.13,2.26,0L45.63,31.71l-3.26,0Z"/><path class="cls-3" d="M49.1,16.09l6.71.06,0,2.24-4.25,0,0,4.14,3.37,0,0,2.23-3.37,0-.05,4.81,4.25,0,0,2.24L49,31.74Z"/><path class="cls-3" d="M57.35,31a4.26,4.26,0,0,1-.89-2.93v-.89l2.33,0V28.3c0,1,.41,1.53,1.26,1.53a1.15,1.15,0,0,0,1-.36,1.8,1.8,0,0,0,.34-1.19,3.43,3.43,0,0,0-.43-1.74,8.28,8.28,0,0,0-1.64-1.81,9.73,9.73,0,0,1-2.1-2.45,5,5,0,0,1-.59-2.45,4.16,4.16,0,0,1,1-2.87,3.53,3.53,0,0,1,2.74-1A3.41,3.41,0,0,1,63,17a4.26,4.26,0,0,1,.88,2.93v.65l-2.32,0v-.81a1.71,1.71,0,0,0-.3-1.17,1.12,1.12,0,0,0-.91-.38c-.82,0-1.24.49-1.24,1.48a3,3,0,0,0,.44,1.6,8.87,8.87,0,0,0,1.65,1.8,9,9,0,0,1,2.1,2.46,5.38,5.38,0,0,1,.56,2.57,4.19,4.19,0,0,1-1,2.95,3.57,3.57,0,0,1-2.77,1A3.49,3.49,0,0,1,57.35,31Z"/><path class="cls-3" d="M24.58,38.75l-2.35,0V37.37l2.35,0,0-2.37L26,35l0,2.36,2.35,0v1.37l-2.35,0,0,2.4-1.37,0Z"/><path class="cls-3" d="M29.36,32l5.1,0,0,1.75-3.17,0,0,3.42,2.49,0,0,1.75-2.48,0-.05,5.34-1.93,0Z"/><path class="cls-3" d="M35.21,32l1.93,0L37,44.31H35.1Z"/><path class="cls-3" d="M38.68,43.71a3.28,3.28,0,0,1-.7-2.3v-.7l1.82,0v.84q0,1.2,1,1.2a.94.94,0,0,0,.74-.28,1.44,1.44,0,0,0,.27-.94,2.67,2.67,0,0,0-.34-1.36,6.8,6.8,0,0,0-1.28-1.42,7.57,7.57,0,0,1-1.65-1.91,4,4,0,0,1-.46-1.92,3.25,3.25,0,0,1,.76-2.25A2.78,2.78,0,0,1,41,31.92a2.68,2.68,0,0,1,2.09.81A3.32,3.32,0,0,1,43.75,35v.51l-1.82,0v-.63a1.45,1.45,0,0,0-.24-.92.88.88,0,0,0-.71-.29c-.65,0-1,.38-1,1.16a2.32,2.32,0,0,0,.35,1.25,6.66,6.66,0,0,0,1.29,1.41,7.35,7.35,0,0,1,1.65,1.92,4.32,4.32,0,0,1,.43,2A3.31,3.31,0,0,1,43,43.74a2.81,2.81,0,0,1-2.17.78A2.71,2.71,0,0,1,38.68,43.71Z"/><path class="cls-3" d="M44.74,32.13h1.92l0,5,2.06,0,0-5,1.92,0-.11,12.26-1.92,0,.05-5.52-2.07,0-.05,5.52-1.93,0Z"/><path class="cls-3" d="M51.91,32.19l5.26.05,0,1.75-3.33,0,0,3.24,2.65,0,0,1.75-2.64,0,0,3.76,3.33,0,0,1.76-5.25,0Z"/><path class="cls-3" d="M58.37,43.89a3.33,3.33,0,0,1-.69-2.3v-.7l1.82,0v.84c0,.8.32,1.2,1,1.2a1,1,0,0,0,.75-.28,1.39,1.39,0,0,0,.26-.94,2.57,2.57,0,0,0-.34-1.36A6.52,6.52,0,0,0,59.87,39,7.5,7.5,0,0,1,58.23,37a3.84,3.84,0,0,1-.46-1.92,3.2,3.2,0,0,1,.76-2.25,2.75,2.75,0,0,1,2.14-.77,2.62,2.62,0,0,1,2.08.81,3.32,3.32,0,0,1,.69,2.29v.51l-1.82,0v-.63a1.39,1.39,0,0,0-.23-.92.9.9,0,0,0-.72-.29c-.64,0-1,.38-1,1.16A2.31,2.31,0,0,0,60,36.26a6.76,6.76,0,0,0,1.3,1.41A7.48,7.48,0,0,1,63,39.59a4.21,4.21,0,0,1,.44,2,3.31,3.31,0,0,1-.77,2.31,2.79,2.79,0,0,1-2.17.78A2.74,2.74,0,0,1,58.37,43.89Z"/><path d="M13.66,15.78l2.46,0L16,29.22l4.05,0,0,2.24-6.51-.06Z"/><path d="M21.78,30.7a4.08,4.08,0,0,1-.94-2.92l.08-8.22a4.07,4.07,0,0,1,1-2.9,3.6,3.6,0,0,1,2.78-1,3.63,3.63,0,0,1,2.76,1.06,4.08,4.08,0,0,1,.94,2.92l-.08,8.22a4.07,4.07,0,0,1-1,2.9,3.59,3.59,0,0,1-2.78,1A3.59,3.59,0,0,1,21.78,30.7ZM25.85,28l.08-8.54q0-1.54-1.26-1.56t-1.29,1.53L23.3,28q0,1.54,1.26,1.56T25.85,28Z"/><path d="M31.75,15.94l3.33,0,2.41,15.68-2.46,0-.42-3.12v0l-2.79,0-.48,3.06-2.28,0Zm2.59,10.49-1-7.74h0l-1.14,7.72Z"/><path d="M38,16l2.48,0,1.5,12.16h0l1.72-12.13,2.26,0L43.44,31.7l-3.27,0Z"/><path d="M46.91,16.08l6.71.06,0,2.24-4.25,0,0,4.14,3.38,0,0,2.23-3.38,0,0,4.81,4.25,0,0,2.23-6.71-.06Z"/><path d="M55.16,31a4.26,4.26,0,0,1-.89-2.93V27.2l2.32,0v1.07q0,1.52,1.26,1.53a1.16,1.16,0,0,0,1-.36,1.8,1.8,0,0,0,.34-1.19,3.31,3.31,0,0,0-.44-1.74,8.18,8.18,0,0,0-1.63-1.81A10,10,0,0,1,55,22.27a5,5,0,0,1-.58-2.45,4.11,4.11,0,0,1,1-2.87,3.52,3.52,0,0,1,2.73-1,3.42,3.42,0,0,1,2.67,1,4.31,4.31,0,0,1,.88,2.93v.65l-2.33,0v-.8a1.76,1.76,0,0,0-.3-1.18,1.15,1.15,0,0,0-.91-.37c-.82,0-1.24.48-1.25,1.48a3,3,0,0,0,.45,1.59A8.61,8.61,0,0,0,59,23.08a9,9,0,0,1,2.1,2.46,5.38,5.38,0,0,1,.56,2.57,4.23,4.23,0,0,1-1,2.95,3.57,3.57,0,0,1-2.77,1A3.49,3.49,0,0,1,55.16,31Z"/><path d="M23.38,38.74l-2.34,0V37.36l2.35,0,0-2.37,1.36,0,0,2.36,2.35,0,0,1.37-2.34,0,0,2.39H23.36Z"/><path d="M28.17,32l5.1,0,0,1.75-3.17,0,0,3.42,2.49,0,0,1.75-2.48,0L30,44.25l-1.93,0Z"/><path d="M34,32l1.93,0L35.83,44.3l-1.92,0Z"/><path d="M37.48,43.7a3.33,3.33,0,0,1-.69-2.3v-.7l1.82,0v.84c0,.79.32,1.19,1,1.2a1,1,0,0,0,.75-.28,1.39,1.39,0,0,0,.26-.94,2.57,2.57,0,0,0-.33-1.36A6.62,6.62,0,0,0,39,38.76a7.71,7.71,0,0,1-1.64-1.91,4,4,0,0,1-.46-1.92,3.2,3.2,0,0,1,.76-2.25,2.77,2.77,0,0,1,2.14-.77,2.66,2.66,0,0,1,2.09.81A3.37,3.37,0,0,1,42.55,35v.51l-1.82,0v-.63A1.39,1.39,0,0,0,40.5,34a.89.89,0,0,0-.72-.29c-.64,0-1,.38-1,1.16a2.23,2.23,0,0,0,.35,1.25,6.39,6.39,0,0,0,1.29,1.41,7.1,7.1,0,0,1,1.64,1.92,4.21,4.21,0,0,1,.44,2,3.31,3.31,0,0,1-.76,2.31,2.82,2.82,0,0,1-2.17.78A2.75,2.75,0,0,1,37.48,43.7Z"/><path d="M43.54,32.12h1.93l0,5,2.07,0,0-5,1.92,0-.11,12.26-1.93,0,0-5.52-2.06,0,0,5.52-1.93,0Z"/><path d="M50.72,32.18l5.25,0V34l-3.33,0,0,3.24,2.64,0V39l-2.64,0,0,3.76,3.33,0,0,1.75-5.25,0Z"/><path d="M57.18,43.87a3.29,3.29,0,0,1-.7-2.29v-.7l1.82,0v.84q0,1.18,1,1.2a1,1,0,0,0,.75-.28,1.39,1.39,0,0,0,.26-.94A2.67,2.67,0,0,0,60,40.36a6.8,6.8,0,0,0-1.28-1.42A7.57,7.57,0,0,1,57,37a3.84,3.84,0,0,1-.45-1.92,3.24,3.24,0,0,1,.75-2.25,2.79,2.79,0,0,1,2.15-.77,2.64,2.64,0,0,1,2.08.81,3.32,3.32,0,0,1,.69,2.29v.51l-1.83,0v-.63a1.39,1.39,0,0,0-.24-.92.88.88,0,0,0-.71-.29c-.64,0-1,.38-1,1.16a2.41,2.41,0,0,0,.35,1.25,6.94,6.94,0,0,0,1.29,1.41,7.35,7.35,0,0,1,1.65,1.92,4.33,4.33,0,0,1,.44,2,3.31,3.31,0,0,1-.77,2.31,2.79,2.79,0,0,1-2.17.78A2.7,2.7,0,0,1,57.18,43.87Z"/></g></g></svg>