<svg xmlns="http://www.w3.org/2000/svg" xmlns:xlink="http://www.w3.org/1999/xlink" version="1.1" id="final" x="0" y="0" width="235.3" height="235" viewBox="0 0 235.3 235" enable-background="new 0 0 235.3 235" xml:space="preserve"><symbol id="New_Symbol" viewBox="-109.3 -64.9 218.7 129.8"><path fill="#FFFFFF" d="M38.1-64.9c-7.1 0-14.2 2.2-20.7 6.4 -3.5 2.2-6.9 5.1-11 9.4C0.9-43.2-3.3-36.5-5.6-30l-0.2 0.4c-0.9 2.4-1.7 4.7-2.3 7.2 -0.3 0.8-0.3 1.1-0.1 1.4l0.2 0.3 0.1 0L-8.1-20l0.4-0.6 0.7 0.2 0.3-0.5c0.8-1.3 1.6-2.7 1.8-2.8 0.1-0.1 0.2-0.2 0.3-0.4 0.4-0.5 1.6-2.2 2.3-2.3 0.1 0 0.1 0 0.1 0 0.2 0.2 0.4 0.5 0.5 1.2 0.1 0.7 0.1 1.3 0.1 2.1 -0.2 2.5-1.6 5.1-3.9 7l-0.8 0.6 0.8 0.6c0.1 0.1 0.2 0.2 0.3 0.3 0.1 0.1 0.3 0.3 0.4 0.4C-3-12.6-1.2-11 0.6-9.4l0.3 0.3c1.7 1.5 3.4 3 5.1 4.6C7.5-3.3 9-2 10.5-0.7l0.3 0.3c1.4 1.2 2.7 2.4 4.1 3.6 2.7 2.5 5.7 5 8.8 7.3 3 2.1 5.7 3.4 8.4 4.2 3 0.9 6.5 1.1 10.4 0.7 6.5-0.8 12-4.5 16.4-8 3.6-2.9 6.6-6.2 9.4-9.2 1.3-1.6 2.5-3.3 3.6-4.9 1.8-2.5 3.6-5 5.5-7.3l0.5-0.5c1.1-1.2 2.2-2.4 3.3-3.3 0.8-0.6 2.8-1.8 3.8-1 1 0.8 2.1 1.8 3 2.6 1.2 1.1 2.3 2 3.4 3 2.1 1.8 4.1 2.7 6.3 2.8 0.5 0 1.1 0 1.6 0 0.5 0 1 0 1.5 0 2.6 0 5.1-0.1 7.6-0.1l1 0 -0.2-1c-0.3-1.5-0.9-3-1.8-4.9 -1.1-2.5-3.1-6.1-6-8.6 -1.3-1.1-2.8-2.1-4.5-2.9 0.1-0.1 0.2-0.1 0.3-0.2 0.4-0.3 0.8-0.5 1.2-0.8 1.3-0.8 2.6-1.5 3.6-2.6 0.8-0.8 1.6-1.8 2.3-3.1 0.1-0.3 0.3-0.5 0.4-0.8 0.3-0.7 0.7-1.3 0.9-2 0.7-2 1.2-4.1 1.7-6.2 0.2-0.7 0.3-1.4 0.5-2.1l0.3-1.2 -1.2 0.1c-0.2 0-0.4 0-0.5 0.1 -0.1 0-0.3 0-0.4 0.1l-12.2 2c-0.3 0.1-0.5 0.1-0.7 0.1 -0.3 0-0.5 0.1-0.8 0.2 -0.7 0.3-1.3 0.7-1.7 1 -0.9 0.6-1.7 1.3-2.4 2 -0.7 0.8-1.3 1.5-1.9 2.4 -0.3 0.4-0.5 0.8-0.7 1.2 -0.2 0.4-0.4 0.8-0.6 1.2 -0.3 0.4-0.7 0.7-1.2 0.7 -0.5 0.1-0.9-0.1-1.3-0.4 -1.8-1.6-3.5-3.3-5.2-5 -1.1-1.1-2.2-2.1-3.3-3.2 -2.7-2.7-5.5-5.4-8.2-7.9 -3.9-3.8-7.3-6.3-11-8.1 -5.6-2.8-11-4.1-16.5-4.2L38.1-64.9z"/><path fill="#FFFFFF" d="M-5.1-26.3c0.3-0.9 0.6-1.8 0.9-2.7l0.2-0.5C-1.8-35.8 2.2-42.2 7.6-48c4-4.1 7.3-7 10.7-9.1 6.2-4 13-6.1 19.8-6.1h0.2c5.3 0 10.4 1.3 15.8 4 3.6 1.8 6.8 4.2 10.6 7.9 2.7 2.6 5.5 5.2 8.2 7.9 1.1 1.1 2.2 2.1 3.2 3.2 1.7 1.7 3.4 3.4 5.2 5 0.7 0.7 1.6 1 2.6 0.9 1-0.1 1.9-0.6 2.4-1.4 0.3-0.4 0.5-0.9 0.8-1.3 0.2-0.4 0.4-0.8 0.6-1.1 0.5-0.8 1.1-1.4 1.7-2.1 0.7-0.6 1.4-1.3 2.1-1.8 0.4-0.2 0.9-0.6 1.3-0.8 0.2 0 0.4-0.1 0.6-0.1 0.3 0 0.6-0.1 0.8-0.2l11.8-1.9 -0.2 0.9c-0.5 2-1 4.1-1.7 6 -0.2 0.6-0.5 1.2-0.8 1.8 -0.1 0.3-0.3 0.5-0.4 0.8 -0.6 1.1-1.3 2-2 2.7 -0.9 0.9-2.1 1.7-3.3 2.3 -0.4 0.3-0.9 0.5-1.3 0.8 -0.2 0.1-0.4 0.3-0.6 0.3 -0.1 0-0.2 0-0.3 0 -0.5 0-1-0.1-1.4-0.1 -0.5 0-0.9 0-1.3 0l-0.5 0L92.2-29l-0.4 0 0.4 0.1L92.1-28l0.4 0.1c3.1 0.8 5.8 2.1 7.8 3.9 2.6 2.3 4.4 5.4 5.5 7.8 0 0.1 0.1 0.2 0.1 0.2 0.6 1.4 1.1 2.5 1.4 3.6 -2.1 0-4.3 0.1-6.5 0.1 -0.5 0-1 0-1.5 0 -0.5 0-1 0-1.5 0 -1.8-0.1-3.4-0.8-5.2-2.3 -1.1-0.9-2.2-1.9-3.4-3 -1-0.9-2.1-1.9-3.1-2.7 -1.4-1.1-3.5-0.8-5.8 0.9 -1.3 1-2.5 2.3-3.6 3.6L76.1-15c-2 2.3-3.8 4.9-5.6 7.3 -1.1 1.5-2.3 3.2-3.6 4.8 -2.7 3-5.7 6.1-9.2 9 -4.3 3.4-9.4 6.9-15.6 7.6 -3.7 0.4-6.9 0.2-9.7-0.6 -2.5-0.7-5-2-7.9-4 -3-2.2-6-4.7-8.7-7.1 -1.5-1.3-3-2.6-4.4-3.9l-0.3-0.3C9.9-3.4 8.5-4.6 7.1-5.8 5.3-7.5 3.5-9 1.7-10.6c-1.8-1.6-3.7-3.2-5.5-4.9 2.3-2.1 3.7-4.9 3.8-7.6 0-0.2 0-0.4 0-0.6 0-0.7-0.1-1.3-0.1-1.8 -0.1-0.8-0.4-1.8-1.2-2.3 -0.4-0.3-0.8-0.4-1.3-0.3C-3.5-28-4.4-27.1-5.1-26.3z"/><path fill="#FFFFFF" d="M10.6-28c-1.4 0-2.8 0.5-3.9 1.3 0 0-0.1 0.1-0.1 0.1l0 0 0 0c-0.1 0-0.1 0.1-0.2 0.1l-0.1 0.1 -1.7 0.7 0 0 0 0 -0.1 0.1 0.1 0 0 1.8c0 0.1-0.1 0.2-0.1 0.3 0 0 0 0.1 0 0.1l-0.1-0.2 0.1 0.3c0 0 0 0.1 0 0.1 -0.3 1.1-0.3 2.3 0.1 3.5 0 0 0 0 0 0 0.2 0.7 0.5 1.3 0.9 1.8l0 0.1 0-0.1c1.2 1.6 3 2.6 4.9 2.7 3 0.1 5.7-2 6.5-5 0 0 0 0 0 0 0.7-2.6-0.4-5.5-2.7-7l0 0c-0.6-0.4-1.2-0.6-1.8-0.8l0 0 0 0c-0.4-0.1-0.9-0.2-1.4-0.2 0 0 0 0 0 0C10.8-28 10.7-28 10.6-28z"/><path fill="#FFFFFF" d="M13.5-22.7c0-1.3-0.6-2.6-1.7-3.5 0.5 0.1 0.9 0.3 1.3 0.6 1.3 0.9 2.2 2.4 2.2 4 0 0.4 0 0.7-0.1 1.1l0 0.1c-0.6 2.1-2.6 3.7-4.7 3.7l-0.1 0c-1.3 0-2.5-0.6-3.3-1.6C7.5-18.1 8.1-18 8.8-18c2.2 0.1 4.1-1.5 4.6-3.8C13.5-22.1 13.5-22.4 13.5-22.7z"/><path fill="#FFFFFF" d="M4.6-25.6l1-0.2C5.3-25.4 5-25 4.8-24.6L4.6-25.6z"/><path fill="#FFFFFF" d="M9.4-23.7c0-0.3-0.1-0.6-0.2-0.9 0.2 0 0.5 0.1 0.7 0.3 0.5 0.3 0.9 0.9 0.9 1.6 0 0.1 0 0.3 0 0.4 -0.2 1-1 1.7-1.8 1.7l-0.1 0c-0.7 0-1.2-0.3-1.5-0.9 0.9 0 1.6-0.5 1.9-1.2C9.3-23 9.4-23.3 9.4-23.7z"/><path fill="#FFFFFF" d="M-32.5-22.1l-0.4 0c-6 0.1-11.8 1.6-17.8 4.6 -4 2.1-7.7 4.8-11.9 8.9 -2.9 2.8-5.9 5.7-8.9 8.6 -1.2 1.1-2.3 2.3-3.4 3.4 -1.8 1.9-3.7 3.7-5.6 5.5 -0.4 0.4-0.9 0.6-1.4 0.5 -0.6 0-1-0.3-1.4-0.8 -0.3-0.4-0.5-0.8-0.7-1.2 -0.2-0.4-0.5-0.9-0.8-1.4 -0.6-1-1.3-1.7-2-2.5 -0.9-0.8-1.7-1.5-2.7-2.2 -0.5-0.3-1.1-0.7-1.7-1 -0.4-0.1-0.7-0.2-1-0.2 -0.2 0-0.5-0.1-0.7-0.1l-13.2-2.1c-0.2 0-0.4 0-0.5-0.1 -0.2 0-0.4-0.1-0.6-0.1l-1.2-0.1 0.3 1.2c0.2 0.7 0.4 1.4 0.6 2.1l0 0.1c0.6 2.2 1.1 4.5 1.9 6.6 0.3 0.7 0.7 1.5 1 2.2 0.2 0.3 0.3 0.6 0.4 0.8 0.8 1.4 1.6 2.5 2.6 3.4 1.2 1.1 2.6 2 3.9 2.8 0.5 0.3 0.9 0.5 1.4 0.8 0.1 0.1 0.3 0.2 0.4 0.3 -1.9 0.9-3.5 1.9-4.9 3.2 -3.1 2.7-5.2 6.6-6.4 9.4 -0.9 2.1-1.5 3.7-1.9 5.3l-0.2 1 1.2 0c2.7 0 5.3 0.1 8.1 0.1 0.5 0 1 0 1.5 0 0.6 0 1.2 0 1.7 0 2.4-0.1 4.5-1.1 6.8-3 1.2-1 2.4-2.1 3.7-3.3 1-1 2.2-2 3.3-2.9 1.1-0.9 3.3 0.4 4.2 1.1 1.3 1 2.4 2.3 3.6 3.6l0.6 0.6c2.1 2.4 4.1 5.1 6 7.8 1.3 1.7 2.6 3.5 3.9 5.2 3 3.3 6.4 6.8 10.3 9.9 4.8 3.8 10.7 7.7 17.8 8.5 4.2 0.4 8 0.2 11.2-0.8 2.9-0.9 5.7-2.3 9-4.6 3.2-2.3 6.1-4.8 9.5-7.9 1.6-1.4 3.2-2.9 4.8-4.3l0.2-0.2c1.5-1.3 3-2.7 4.5-4.1 2-1.8 3.9-3.5 5.8-5.2 2-1.8 3.9-3.5 5.9-5.3 0.1-0.1 0.2-0.2 0.4-0.4 0.1-0.1 0.2-0.2 0.3-0.3l0.8-0.7 -0.8-0.7c-2.6-2.1-4.1-4.8-4.3-7.6 -0.1-0.8 0-1.6 0.1-2.3 0.1-0.9 0.4-1.2 0.5-1.3 0.1-0.1 0.1-0.1 0.2-0.1 0.8 0.1 2.1 1.8 2.6 2.5 0.1 0.2 0.3 0.3 0.4 0.5 0.1 0.1 1.1 1.7 1.9 3.1l0.3 0.5 0.8-0.2 0.2 0.4 -0.1-0.4 0.1 0 0.2-0.3c0.2-0.3 0.2-0.7-0.1-1.6 -0.7-2.6-1.6-5-2.5-7.6l-0.2-0.5C12.2 8.2 7.7 1.1 1.6-5.3c-4.5-4.6-8.2-7.7-12-10.1C-17.3-19.8-25-22.1-32.5-22.1z"/><path fill="#FFFFFF" d="M-81.8 11.2c0.9 0 1.8-0.4 2.5-1 1.9-1.8 3.8-3.6 5.6-5.5 1.2-1.2 2.3-2.3 3.5-3.5 2.9-3 5.9-5.8 8.8-8.6 4.1-4 7.6-6.6 11.5-8.6 5.8-2.9 11.4-4.4 17.1-4.4 7.4-0.1 14.9 2.2 21.6 6.5C-7.6-11.6-4-8.6 0.4-4.1 6.3 2.1 10.7 9 13.2 15.9l0 0 0.2 0.5c0.4 1.1 0.8 2.1 1.1 3.1 -0.8-1-1.8-2-2.9-2.1 -0.5-0.1-1 0.1-1.4 0.4 -0.8 0.5-1.1 1.6-1.2 2.4 -0.1 0.6-0.1 1.2-0.1 1.9 0 0.2 0 0.5 0 0.7C9 25.7 10.5 28.7 13 31c-2 1.8-3.9 3.5-5.8 5.2l-0.5 0.4c-1.8 1.6-3.7 3.3-5.5 5 -1.6 1.4-3.2 2.9-4.8 4.3L-3.8 46c-1.5 1.3-3 2.7-4.5 4.1 -3.4 3.1-6.2 5.6-9.3 7.8 -3.1 2.2-5.8 3.6-8.5 4.4 -3 0.9-6.5 1.1-10.5 0.7 -6.6-0.7-12.3-4.5-16.9-8.1 -3.8-3.1-7.1-6.5-10-9.7 -1.3-1.7-2.6-3.4-3.8-5.1 -2-2.7-4-5.4-6.1-7.9l-0.6-0.6c-1.2-1.3-2.5-2.7-3.9-3.8 -2.6-1.8-4.8-2.2-6.3-1 -1.1 0.9-2.3 2-3.4 3 -1.2 1.1-2.4 2.2-3.6 3.2 -2 1.7-3.7 2.5-5.7 2.6 -0.4 0-0.9 0-1.5 0 -0.6 0-1.2 0-1.7 0 -2.5 0-4.8 0-7.2-0.1 0.3-1.2 0.8-2.4 1.5-4 1.2-2.6 3.1-6.2 6-8.8 2.2-2 5.1-3.4 8.4-4.3l0.4-0.1 -0.2-0.9 0.2-0.1 -0.2 0 -0.1-0.6 -0.5 0c-0.4 0-0.9 0-1.4 0.1 -0.5 0-1 0-1.4 0.1 -0.3 0.1-0.4 0.1-0.5 0.1 -0.1 0-0.4-0.2-0.6-0.3 -0.4-0.3-0.9-0.6-1.4-0.8 -1.3-0.8-2.6-1.5-3.6-2.5 -0.8-0.8-1.5-1.8-2.2-3 -0.1-0.2-0.3-0.5-0.4-0.8 -0.4-0.7-0.7-1.3-0.9-2 -0.7-2.1-1.3-4.3-1.9-6.5 -0.1-0.3-0.2-0.7-0.3-1l12.9 2c0.2 0.1 0.5 0.1 0.8 0.1 0.2 0 0.5 0.1 0.7 0.1 0.4 0.2 0.9 0.5 1.4 0.8 0.8 0.5 1.6 1.2 2.4 1.9 0.6 0.7 1.3 1.4 1.8 2.2 0.3 0.4 0.5 0.8 0.7 1.2 0.2 0.5 0.5 1 0.8 1.5 0.6 0.8 1.5 1.4 2.6 1.5C-82 11.2-81.9 11.2-81.8 11.2z"/><path fill="#FFFFFF" d="M-2.3 16.8l1 0.9c-1.8-0.4-3.7 0-5.2 0.9 -1.9 1.2-3.1 3.5-3.1 5.8 0 0.6 0.1 1.2 0.2 1.7 0.9 3.2 3.8 5.4 7 5.3 2.8-0.1 5.3-2.1 6.2-4.9 0.2-0.7 0.3-1.4 0.3-2 0-0.7-0.1-1.5-0.3-2.2l0 0c0-0.1 0-0.2-0.1-0.3 0 0 0 0 0-0.1l0-1.6 -0.2 0.9c-0.2-0.5-0.6-1-1-1.5L3.7 20l-1.8-0.8c-0.1-0.1-0.2-0.2-0.3-0.2 -0.5-0.4-1.1-0.7-1.8-1L-2.3 16.8z"/><path fill="#FFFFFF" d="M-7.8 24.5c0-1.7 0.9-3.4 2.3-4.3 0.5-0.3 1-0.5 1.6-0.7 -1.2 0.9-1.9 2.3-1.9 3.8 0 0.4 0 0.7 0.1 1.1 0.6 2.5 2.6 4.1 5 4 0.7 0 1.4-0.2 2-0.5 -0.9 1.2-2.3 1.9-3.7 2l-0.2 0c-2.3 0-4.5-1.7-5.1-4C-7.7 25.4-7.8 24.9-7.8 24.5z"/><path fill="#FFFFFF" d="M-3 23.3c0-0.8 0.5-1.4 1-1.8 0.3-0.2 0.6-0.3 0.9-0.3 -0.1 0.3-0.2 0.7-0.2 1 0 0.3 0.1 0.7 0.2 1 0.4 0.9 1.1 1.3 2.1 1.3 -0.3 0.5-0.8 0.9-1.4 1 -0.1 0-0.2 0-0.3 0l-0.2 0c-1 0-1.8-0.8-2-1.8C-2.9 23.6-3 23.4-3 23.3z"/><path fill="#FFFFFF" d="M-0.3 22.2c0-0.3 0.1-0.6 0.3-0.9 0.2 0.1 0.3 0.2 0.4 0.3 0.7 0.5 0.9 1.3 0.9 1.8 0 0 0 0.1 0 0.1 -0.1 0-0.2 0-0.3 0h0c-0.7 0-1-0.4-1.1-0.7C-0.3 22.6-0.3 22.4-0.3 22.2z"/></symbol><g id="XMLID_1_"><path fill="#413F45" stroke="#000000" stroke-miterlimit="10" d="M117.7 0.5c64.6 0 117 52.4 117 117s-52.4 117-117 117 -117-52.4-117-117S53.1 0.5 117.7 0.5z"/><use xlink:href="#New_Symbol" width="218.7" height="129.8" id="fish-outline_2_" x="-109.3" y="-64.9" transform="matrix(1 0 0 -1 117.65 117.5)" overflow="visible"/><path id="brand-text_2_" d="M41.4 99.3c1.3-0.9 2-1.3 3.4-2.1 3.5 8.4 5.3 12.6 8.8 20.9 2.5-0.8 3.7-1.2 6.2-2.1 0.6 1.5 0.9 2.2 1.5 3.7 -4 1.4-6 2-10.2 2.9C47.3 113.2 45.3 108.5 41.4 99.3zM63.6 117.2c-1.4-0.8-2.6-2.2-3.5-4.2 -2.3-5.4-3.4-8.1-5.7-13.5 -0.9-2.1-1.1-3.9-0.6-5.4 0.5-1.6 1.6-2.7 3.4-3.5 1.8-0.7 3.4-0.7 4.9 0.1 1.4 0.8 2.6 2.2 3.5 4.2 2.3 5.4 3.4 8 5.7 13.4 0.9 2 1.1 3.8 0.6 5.4 -0.5 1.6-1.6 2.8-3.3 3.5C66.7 118 65.1 118 63.6 117.2zM67.7 110.1c-2.4-5.6-3.6-8.4-5.9-14.1 -0.7-1.7-1.7-2.3-3-1.8 -1.3 0.5-1.5 1.6-0.8 3.3 2.4 5.7 3.6 8.5 6 14.1 0.7 1.7 1.7 2.3 3 1.7C68.2 112.9 68.4 111.8 67.7 110.1zM68.4 86.9c2-0.7 3.1-1 5.1-1.7 5.6 9.1 8.4 13.5 13.7 22 -1.4 0.8-2.1 1.1-3.5 1.9 -1.1-1.8-1.6-2.6-2.7-4.4 0 0 0 0 0 0.1 -1.6 0.8-2.4 1.2-4.1 2 0.6 2.1 0.8 3.1 1.4 5.2 -1.3 0.7-2 1-3.3 1.7C72.4 102.7 71 97.4 68.4 86.9zM79.3 101.7c-2.7-4.5-4-6.7-6.7-11.3 0 0 0 0-0.1 0 1.4 5.1 2.1 7.6 3.5 12.8C77.4 102.6 78 102.3 79.3 101.7zM77.3 84.1c1.5-0.5 2.3-0.7 3.8-1.2 3.9 6.7 5.9 9.9 9.7 16.3 0 0 0 0 0.1 0 -2-7.3-2.9-10.9-4.8-17.9 1.4-0.5 2.1-0.7 3.5-1.2 2.1 9 3.2 13.5 5.5 22.9 -1.9 1-2.8 1.5-4.7 2.5C85.3 97.2 82.7 92.9 77.3 84.1zM91.4 79.5c4.1-1.5 6.1-2.2 10-4 0.5 1.2 0.7 1.8 1.2 2.9 -2.5 1.1-3.8 1.6-6.3 2.6 0.9 2.2 1.4 3.3 2.3 5.5 2-0.8 3-1.3 5-2.1 0.5 1.2 0.7 1.8 1.2 2.9 -2 0.8-3 1.3-5 2.1 1.1 2.5 1.6 3.8 2.7 6.3 2.5-1.1 3.8-1.7 6.3-2.7 0.5 1.2 0.7 1.8 1.2 2.9 -4 1.6-6 2.5-9.9 4.4C96.7 92.1 94.9 87.9 91.4 79.5zM112.6 93.9c-1.3-0.6-2.3-1.7-3-3.4 -0.2-0.5-0.3-0.7-0.5-1.2 1.4-0.6 2.1-0.8 3.5-1.4 0.2 0.6 0.4 0.9 0.6 1.5 0.6 1.4 1.5 1.8 2.8 1.4 0.6-0.2 1.1-0.5 1.2-1 0.2-0.4 0.1-1.1-0.2-1.8 -0.4-0.9-1-1.7-1.7-2.2 -0.7-0.5-1.9-1-3.5-1.5 -2-0.6-3.5-1.2-4.5-1.9 -1-0.7-1.8-1.7-2.3-2.9 -0.7-1.6-0.8-3.1-0.2-4.5 0.5-1.3 1.6-2.5 3.3-3.4 1.7-0.9 3.1-1.2 4.3-0.8 1.3 0.5 2.3 1.7 3.1 3.5 0.2 0.4 0.2 0.6 0.4 1 -1.3 0.7-2 1-3.3 1.7 -0.2-0.5-0.3-0.7-0.5-1.1 -0.3-0.8-0.7-1.2-1.1-1.4 -0.4-0.2-0.9-0.1-1.5 0.2 -1.2 0.6-1.5 1.6-0.9 2.9 0.3 0.8 0.8 1.4 1.6 1.8s1.9 0.9 3.5 1.4c2 0.6 3.6 1.3 4.6 2.2 1 0.8 1.9 2 2.5 3.5 0.8 1.9 0.9 3.5 0.3 4.7 -0.6 1.2-1.8 2.1-3.7 2.6C115.5 94.5 113.9 94.5 112.6 93.9zM118.1 143.3c3.7-2.2 5.5-3.2 9.4-4.8 0.5 1.4 0.8 2.1 1.3 3.6 -2.4 1-3.6 1.5-6 2.6 0.9 2.6 1.4 4 2.4 6.6 1.9-0.7 2.9-1.1 4.8-1.8 0.5 1.4 0.8 2.1 1.3 3.5 -1.9 0.7-2.9 1-4.8 1.7 1.5 4.1 2.2 6.2 3.7 10.3 -1.6 0.3-2.4 0.5-4 0.7C122.9 156.7 121.3 152.2 118.1 143.3zM129.3 137.7c1.5-0.6 2.2-0.9 3.7-1.4 3.6 10.1 5.4 15.1 9 25.2 -1.5 0.5-2.2 0.8-3.7 1.3C134.7 152.8 132.9 147.8 129.3 137.7zM145.1 158.9c-1.3-0.7-2.3-2.1-3.1-4.1 -0.2-0.6-0.3-0.9-0.5-1.4 1.4-0.5 2.1-0.8 3.5-1.3 0.2 0.7 0.4 1 0.6 1.7 0.6 1.6 1.5 2.2 2.8 1.6 0.6-0.3 1-0.6 1.2-1.2 0.2-0.5 0.1-1.2-0.2-2.1 -0.4-1-0.9-1.8-1.6-2.4 -0.7-0.6-1.9-1.2-3.5-1.9 -2-0.8-3.6-1.8-4.6-2.7 -1-0.9-1.8-2.1-2.3-3.6 -0.7-2-0.8-3.7-0.2-5.1 0.6-1.4 1.8-2.4 3.6-2.9 1.8-0.5 3.4-0.4 4.7 0.4 1.3 0.8 2.3 2.1 3 4 0.1 0.4 0.2 0.6 0.4 1 -1.4 0.5-2.1 0.7-3.6 1.1 -0.2-0.5-0.3-0.8-0.4-1.3 -0.3-0.8-0.7-1.4-1.1-1.7 -0.5-0.3-1-0.3-1.6-0.1 -1.3 0.4-1.6 1.4-1 3 0.3 0.9 0.9 1.7 1.6 2.3 0.7 0.6 1.9 1.3 3.5 1.9 2.1 0.8 3.6 1.7 4.6 2.6 1 0.9 1.7 2.1 2.3 3.6 0.7 1.9 0.8 3.6 0.2 5.1 -0.6 1.5-1.7 2.6-3.5 3.4C147.9 159.6 146.4 159.6 145.1 158.9zM148.7 131.7c1.5-0.4 2.3-0.6 3.9-1 1.3 3.7 2 5.5 3.3 9.2 1.6-0.5 2.4-0.8 4-1.4 -1.3-3.6-1.9-5.4-3.2-8.9 1.5-0.4 2.3-0.6 3.8-1 3.1 8.5 4.6 12.8 7.6 21.3 -1.5 0.6-2.2 1-3.6 1.6 -1.4-3.9-2.1-5.9-3.5-9.9 -1.6 0.6-2.4 0.9-4 1.5 1.5 4.1 2.2 6.1 3.7 10.2 -1.4 0.7-2.2 1-3.6 1.7C153.7 145.8 152.1 141.1 148.7 131.7zM163.4 127.9c4.2-1.2 6.2-1.9 10.2-3.4 0.4 1.2 0.6 1.8 1 2.9 -2.6 1-3.9 1.4-6.5 2.3 0.8 2.2 1.2 3.3 1.9 5.4 2.1-0.7 3.1-1.1 5.1-1.8 0.4 1.2 0.6 1.8 1 2.9 -2 0.7-3.1 1.1-5.1 1.8 0.9 2.5 1.4 3.8 2.3 6.3 2.6-1 3.8-1.5 6.4-2.3 0.4 1.2 0.6 1.8 1 2.9 -4.1 1.4-6.1 2.2-10.1 3.9C167.9 140.4 166.4 136.2 163.4 127.9zM183.6 142.9c-1.3-0.6-2.2-1.7-2.8-3.4 -0.2-0.5-0.3-0.7-0.4-1.2 1.4-0.5 2.1-0.7 3.6-1.2 0.2 0.6 0.3 0.9 0.5 1.4 0.5 1.4 1.4 1.9 2.7 1.5 0.7-0.2 1.1-0.5 1.3-0.9 0.2-0.4 0.2-1-0.1-1.8 -0.3-0.9-0.9-1.7-1.6-2.2s-1.9-1.1-3.4-1.6c-2-0.7-3.4-1.3-4.4-2.1 -0.9-0.7-1.6-1.7-2.1-2.9 -0.6-1.6-0.6-3.1 0-4.4 0.6-1.3 1.8-2.3 3.5-3.2 1.7-0.9 3.1-1.1 4.4-0.6 1.2 0.5 2.2 1.7 2.8 3.6 0.1 0.4 0.2 0.6 0.3 1 -1.4 0.6-2 0.9-3.4 1.5 -0.2-0.5-0.2-0.7-0.4-1.1 -0.3-0.8-0.6-1.2-1-1.4 -0.4-0.2-0.9-0.2-1.5 0.1 -1.2 0.6-1.6 1.5-1.1 2.8 0.3 0.8 0.8 1.4 1.5 1.9 0.7 0.5 1.8 1 3.4 1.5 2 0.7 3.5 1.5 4.5 2.4 1 0.9 1.7 2.1 2.3 3.5 0.7 1.9 0.7 3.5 0 4.7 -0.7 1.2-2 1.9-3.9 2.3C186.4 143.6 184.9 143.6 183.6 142.9zM93.4 104.7h3.8l2.9 15.3h-2.8l-0.5-3v0h-3.2l-0.5 3h-2.6L93.4 104.7zM96.5 114.9l-1.2-7.5h-0.1l-1.2 7.5H96.5zM101.4 104.7h3.5l2.7 9.1h0.1v-9.1h2.5v15.3h-2.9l-3.4-11.1h-0.1v11.1h-2.5V104.7zM112.3 104.7h4.3c1.4 0 2.4 0.3 3.1 1 0.7 0.6 1 1.6 1 2.8v7.7c0 1.2-0.3 2.2-1 2.8 -0.7 0.6-1.7 1-3.1 1h-4.3V104.7zM116.5 117.7c0.5 0 0.8-0.1 1.1-0.3 0.2-0.2 0.4-0.6 0.4-1.1v-7.9c0-0.5-0.1-0.9-0.4-1.1 -0.2-0.2-0.6-0.3-1.1-0.3h-1.4v10.9H116.5z"/></g></svg>