<?xml version="1.0" encoding="utf-8"?>
<!-- Generator: Adobe Illustrator 22.1.0, SVG Export Plug-In . SVG Version: 6.00 Build 0)  -->
<svg version="1.1" id="Layer_1" xmlns="http://www.w3.org/2000/svg" xmlns:xlink="http://www.w3.org/1999/xlink" x="0px" y="0px"
	 width="70.3px" height="48px" viewBox="0 0 70.3 48" enable-background="new 0 0 70.3 48" xml:space="preserve">
<g id="Layer_2-2">
	<path fill="#CBEE9A" stroke="#110F16" stroke-miterlimit="10" d="M69,17.4c0,0,0,0.5,0,0.5c-0.1,1.5-0.4,3.1-0.6,4.6
		c-0.8,4.4-2.4,8.5-4.9,12.2c-1.5,2.4-3.3,4.6-5.3,6.5c-3.1,3-7,5-11.2,5.7c-3.3,0.5-6.6,0.3-9.8-0.7c-2.5-0.8-4.9-2-7.1-3.5
		c-1.9-1.2-3.7-2.5-5.6-3.7c-1.8-1.3-3.8-2.7-5.7-3.9c-0.7-0.5-1.6-0.3-2.1,0.4c0,0.1-0.1,0.1-0.1,0.2c-0.2,0.5-0.3,1-0.5,1.5
		c-0.2,0.5-0.5,1-0.8,1.5c-0.3,0.5-0.7,0.9-1.1,1.3c-0.2,0.2-0.5,0.5-0.8,0.6c-0.3,0.1-0.5,0.2-0.8,0.3l-6.9,2.4l-0.6,0.2
		c0.1-1.6,0.2-3.3,0.4-4.9c0.1-0.6,0.3-1.2,0.5-1.7c0.2-0.7,0.5-1.4,0.9-2c0.7-0.9,1.5-1.7,2.4-2.4c0.1-0.1,0.2-0.2,0.4-0.4
		c0.1,0,0.3-0.1,0.4-0.1l1.5-0.2c-1.8-0.1-3.5-0.6-5.1-1.5c-1.7-1.1-3.1-2.6-4.3-4.3c-0.6-0.8-1.1-1.7-1.5-2.6l4.4-0.9
		c0.6-0.1,1.1-0.3,1.7-0.3c1.2-0.1,2.5,0.2,3.5,0.8l2.3,1.3c0.7,0.4,1.4,0.9,2.1,1.3c0.9,0.5,2.1-0.4,2.7-1c0.7-0.9,1.3-1.8,1.8-2.8
		c1.5-2.6,2.7-5.3,4.1-8c1.3-2.2,2.8-4.3,4.5-6.2c2.3-2.6,5-5.1,8.4-6.2c1.9-0.6,3.9-0.8,5.9-0.7c1.8,0.2,3.5,0.7,5.2,1.6
		c2,1,4,2.1,5.8,3.3l6,3.6l7.3,4.5l0.5,0.3c-1.2,1.3-1.8,3.1-1.7,4.9c0,0.5,0.1,0.9,0.3,1.3c0.1,0.4,0.3,0.7,0.6,0.9
		c0.9,0.4,1.7-1.5,2-2C68.3,19.1,69,17.4,69,17.4z"/>
	<g id="White-font">
		<polygon fill="#FFFFFF" points="18.1,16 16,16 15.8,32 22,32 22,29 18,29 		"/>
		<path fill="#FFFFFF" d="M26.4,31.3c1,0.1,1.9-0.3,2.6-0.9c0.7-0.8,1-1.7,0.9-2.7l0.1-7.8c0.1-1-0.2-2-0.9-2.8
			c-0.7-0.7-1.6-1-2.6-0.9c-1-0.1-1.9,0.3-2.6,0.9c-0.7,0.8-1,1.7-0.9,2.7l-0.1,7.8c-0.1,1,0.3,2,0.9,2.8
			C24.6,31,25.5,31.3,26.4,31.3z"/>
		<polygon fill="#FFFFFF" points="37.5,16 34,16 31.2,32 33.8,32 34.3,29 37,29 37,28.8 37.4,32 39.9,32 		"/>
		<polygon fill="#FFFFFF" points="45.6,32 48.1,16 45.8,16 44.1,28.2 42.6,17 40.2,17 42.3,32 		"/>
		<polygon fill="#FFFFFF" points="56,30 52,30 52,25 55,25 55,22 52,22 52,18 56,18 56,16 49,16 48.9,32 56,32 		"/>
		<path fill="#FFFFFF" d="M61,20h3v-0.7c0.1-1.1-0.2-2.2-0.9-3.1c-0.7-0.8-1.6-1.2-2.6-1.1c-1-0.1-2,0.3-2.7,1.1c-0.7,0.8-1,1.9-1,3
			c0,0.9,0.2,1.8,0.6,2.6c0.5,1,1.2,1.9,2.1,2.6c0.6,0.6,1.2,1.2,1.6,1.9c0.3,0.6,0.4,1.2,0.4,1.8c0,0.5-0.1,0.9-0.3,1.3
			c-0.3,0.3-0.6,0.4-1,0.4c-0.8,0-1.2-0.6-1.2-1.6V27h-3v0.9c-0.1,1.1,0.2,2.1,0.9,3c0.7,0.8,1.7,1.2,2.7,1.1
			c-0.6,0.1-1.1,0.3-1.5,0.8c-0.5,0.6-0.8,1.5-0.8,2.3c0,0.7,0.1,1.4,0.5,2c0.4,0.8,1,1.5,1.6,2c0.5,0.4,0.9,0.9,1.3,1.4
			c0.2,0.4,0.4,0.9,0.3,1.4c0,0.3-0.1,0.7-0.3,1c-0.2,0.2-0.5,0.3-0.7,0.3c-0.7,0-1-0.4-1-1.2V41h-1v0.7c-0.1,0.8,0.2,1.6,0.7,2.2
			c0.6,0.5,1.4,0.8,2.2,0.8c0.8,0.1,1.6-0.2,2.2-0.7c0.5-0.6,0.8-1.4,0.8-2.2c0-0.7-0.1-1.3-0.4-1.9c-0.5-0.7-1-1.3-1.7-1.8
			c-0.5-0.4-1-0.8-1.3-1.4c-0.2-0.4-0.4-0.8-0.3-1.2c0-0.7,0.4-1.1,1-1.1c0.3,0,0.5,0.1,0.7,0.3c0.2,0.3,0.3,0.6,0.2,0.9V36h1v-0.5
			c0.1-0.9-0.2-1.7-0.7-2.4c-0.6-0.6-1.3-0.9-2.2-0.9c0.8-0.1,1.7-0.4,2.3-1c0.7-0.9,1.1-2,1.1-3.1c0-0.9-0.2-1.9-0.6-2.7
			c-0.6-1-1.3-1.9-2.2-2.6c-0.7-0.6-1.3-1.2-1.8-1.9c-0.3-0.5-0.5-1.1-0.5-1.7c0-1,0.4-1.6,1.3-1.6c0.4,0,0.7,0.1,1,0.4
			c0.3,0.4,0.4,0.8,0.3,1.2V20z"/>
		<polygon fill="#FFFFFF" points="26,35 24,35 24,37 22,37 22,39 24.6,39 24.6,41 26,41 26,39 28,39 28,37 26,37 		"/>
		<polygon fill="#FFFFFF" points="29,44 31,44 31,39 34,39 34,37 31,37 31,34 34,34 34,32 29,32 		"/>
		<polygon fill="#FFFFFF" points="35,44 37,44 37.1,32 35,32 		"/>
		<path fill="#FFFFFF" d="M41.2,32.5c-0.8-0.1-1.6,0.2-2.2,0.7c-0.5,0.6-0.8,1.4-0.8,2.2c0,0.6,0.2,1.3,0.5,1.8
			c0.4,0.7,1,1.3,1.7,1.8c0.5,0.4,0.9,0.9,1.3,1.4c0.2,0.4,0.4,0.9,0.3,1.3c0,0.3-0.1,0.6-0.3,0.9c-0.2,0.2-0.5,0.3-0.7,0.3
			c-0.7,0-1-0.4-1-1.2V41h-2v0.7c-0.1,0.8,0.2,1.6,0.7,2.2c0.6,0.6,1.4,0.8,2.2,0.8c0.8,0.1,1.6-0.2,2.2-0.7
			c0.5-0.6,0.8-1.4,0.7-2.2c0-0.7-0.1-1.3-0.4-1.9c-0.4-0.7-1-1.3-1.7-1.8c-0.5-0.4-0.9-0.8-1.3-1.4c-0.2-0.4-0.4-0.8-0.4-1.2
			c0-0.7,0.4-1.1,1-1.1c0.3,0,0.5,0.1,0.7,0.3c0.2,0.3,0.3,0.6,0.2,0.9V36h2v-0.5c0.1-0.8-0.2-1.6-0.7-2.2
			C42.8,32.8,42,32.5,41.2,32.5z"/>
		<polygon fill="#FFFFFF" points="49,37 47,37 47,32 45,32 45,45 47,45 47,39 49,39 48.9,45 51,45 51,32 49,32 		"/>
		<polygon fill="#FFFFFF" points="54,39 57,39 57,37 54,37 54,34 57,34 57,32 52,31.9 52,44 57,44 57,43 54,43 		"/>
	</g>
	<g id="Black-Writing">
		<polygon points="16.1,15.8 13.7,15.8 13.5,31.4 20,31.5 20,29.2 16,29.2 		"/>
		<path d="M28.4,19.6c0.1-1.1-0.3-2.1-0.9-2.9c-0.7-0.7-1.7-1.1-2.8-1.1c-1-0.1-2,0.3-2.8,1c-0.7,0.8-1.1,1.8-1,2.9l-0.1,8.2
			c-0.1,1.1,0.3,2.1,0.9,2.9c0.7,0.7,1.7,1.1,2.8,1.1c1,0.1,2-0.3,2.8-1c0.7-0.8,1.1-1.8,1-2.9L28.4,19.6z M25.8,28
			c0,1.1-0.4,1.6-1.3,1.6c-0.8,0-1.3-0.5-1.3-1.6l0.1-8.6c0-1,0.5-1.5,1.3-1.5c0.8,0,1.3,0.5,1.3,1.6L25.8,28z"/>
		<path d="M31.8,28.5h2.8l0.4,3.1h2.5l-2.4-15.7h-3.3l-2.7,15.6h2.3L31.8,28.5z M33.3,18.7l1,7.7l-2.1,0L33.3,18.7z"/>
		<polygon points="43.4,31.7 46,16 43.7,16 42,28.2 40.5,16 38,16 40.2,31.7 		"/>
		<polygon points="53.6,29.6 49.4,29.6 49.4,24.7 52.8,24.7 52.8,22.5 49.4,22.5 49.4,18.4 53.6,18.4 53.6,16.1 46.9,16.1 
			46.9,31.7 53.6,31.8 		"/>
		<path d="M57.9,32.1c1,0.1,2-0.3,2.8-1c0.7-0.8,1.1-1.9,1-3c0-0.9-0.2-1.8-0.6-2.6c-0.5-0.9-1.3-1.8-2.1-2.5
			c-0.6-0.5-1.2-1.1-1.6-1.8c-0.3-0.5-0.5-1-0.4-1.6c0-1,0.4-1.5,1.3-1.5c0.3,0,0.7,0.1,0.9,0.4c0.2,0.3,0.3,0.8,0.3,1.2v0.8h2.3
			v-0.7c0.1-1.1-0.2-2.1-0.9-2.9c-0.7-0.7-1.7-1.1-2.7-1c-1-0.1-2,0.3-2.7,1c-0.7,0.8-1,1.8-1,2.9c0,0.9,0.2,1.7,0.6,2.5
			c0.6,0.9,1.3,1.7,2.1,2.4c0.6,0.5,1.2,1.1,1.6,1.8c0.3,0.5,0.5,1.1,0.4,1.7c0,0.4-0.1,0.8-0.3,1.2c-0.3,0.3-0.6,0.4-1,0.4
			c-0.8,0-1.3-0.5-1.3-1.5v-1.1h-2.3v0.9c-0.1,1.1,0.2,2.1,0.9,2.9C55.9,31.7,56.9,32.1,57.9,32.1z"/>
		<polygon points="24.8,35 23.4,35 23.4,37.4 21,37.4 21,38.7 23.4,38.7 23.4,41.1 24.8,41.1 24.8,38.7 27.1,38.7 27.1,37.4 
			24.8,37.4 		"/>
		<polygon points="28.1,44.2 30,44.2 30.1,38.9 32.6,38.9 32.6,37.2 30.1,37.2 30.1,33.7 33.3,33.7 33.3,32 28.2,32 		"/>
		<polygon points="33.9,44.3 35.8,44.3 35.9,32 34,32 		"/>
		<path d="M39.8,31.9c-0.8-0.1-1.6,0.2-2.1,0.8c-0.5,0.6-0.8,1.4-0.8,2.3c0,0.7,0.1,1.3,0.5,1.9c0.4,0.7,1,1.4,1.6,1.9
			c0.5,0.4,0.9,0.9,1.3,1.4c0.2,0.4,0.3,0.9,0.3,1.4c0,0.3-0.1,0.7-0.3,0.9c-0.2,0.2-0.5,0.3-0.8,0.3c-0.7,0-1-0.4-1-1.2v-0.8h-1.8
			v0.7c-0.1,0.8,0.2,1.6,0.7,2.3c0.5,0.6,1.3,0.9,2.1,0.8c0.8,0.1,1.6-0.2,2.2-0.8c0.5-0.6,0.8-1.5,0.8-2.3c0-0.7-0.1-1.4-0.4-2
			c-0.4-0.7-1-1.4-1.6-1.9c-0.5-0.4-0.9-0.9-1.3-1.4c-0.2-0.4-0.4-0.8-0.3-1.3c0-0.8,0.4-1.2,1-1.2c0.3,0,0.5,0.1,0.7,0.3
			c0.2,0.3,0.3,0.6,0.2,0.9v0.6h1.8V35c0.1-0.8-0.2-1.6-0.7-2.3C41.3,32.2,40.6,31.9,39.8,31.9z"/>
		<polygon points="47.5,37.1 45.5,37.1 45.5,32.1 43.5,32.1 43.4,44.4 45.4,44.4 45.4,38.9 47.4,38.9 47.4,44.4 49.3,44.4 
			49.5,32.1 47.5,32.1 		"/>
		<polygon points="50.7,44.5 56,44.5 56,42.8 52.6,42.8 52.6,39 55.3,39 55.3,37.2 52.6,37.2 52.6,34 56,34 56,32.2 50.7,32.2 		"/>
		<path d="M62.2,35.7v-0.5c0.1-0.8-0.2-1.6-0.7-2.3c-0.5-0.6-1.3-0.9-2.1-0.8c-0.8-0.1-1.6,0.2-2.2,0.8c-0.5,0.6-0.8,1.4-0.8,2.3
			c0,0.7,0.1,1.3,0.5,1.9c0.5,0.7,1,1.4,1.7,1.9c0.5,0.4,0.9,0.9,1.3,1.4c0.2,0.4,0.3,0.9,0.3,1.3c0,0.3-0.1,0.7-0.3,0.9
			c-0.2,0.2-0.5,0.3-0.8,0.3c-0.7,0-1-0.4-1-1.2v-0.8h-1.8v0.7c-0.1,0.8,0.2,1.6,0.7,2.3c0.5,0.5,1.3,0.8,2,0.8
			c0.8,0.1,1.6-0.2,2.2-0.8c0.5-0.6,0.8-1.5,0.8-2.3c0-0.7-0.1-1.4-0.4-2c-0.4-0.7-1-1.4-1.6-1.9c-0.5-0.4-0.9-0.9-1.3-1.4
			c-0.2-0.4-0.3-0.8-0.3-1.3c0-0.8,0.4-1.2,1-1.2c0.3,0,0.5,0.1,0.7,0.3c0.2,0.3,0.3,0.6,0.2,0.9v0.6H62.2z"/>
	</g>
</g>
</svg>
