<svg xmlns="http://www.w3.org/2000/svg" viewBox="0 0 212 235"><defs><style>.cls-1{fill:#00ff53;}.cls-2{font-size:60.83px;font-family:Arial-BoldMT, Arial;font-weight:700;}.cls-3{letter-spacing:-0.06em;}</style></defs><title>Asset 2</title><g id="Layer_2" data-name="Layer 2"><g id="Layer_1-2" data-name="Layer 1"><rect class="cls-1" width="212" height="235"/><text class="cls-2" transform="translate(29.44 128.89) scale(0.94 1)"><tspan class="cls-3">Y</tspan><tspan x="37.22" y="0">es</tspan></text><rect x="140.04" y="106.69" width="6.1" height="21.66" transform="translate(-41.81 127.4) rotate(-42.45)"/><path d="M151.85,122.66l-4.5,4.12h1.59l-14.62-16v1.59l4.5-4.11h-1.59l14.62,16c1,1.07,2.57-.52,1.59-1.59l-14.62-16a1.13,1.13,0,0,0-1.59,0l-4.5,4.11a1.14,1.14,0,0,0,0,1.59l14.62,16a1.15,1.15,0,0,0,1.59,0l4.5-4.12C154.51,123.27,152.92,121.69,151.85,122.66Z"/><rect x="141.35" y="108.52" width="39.88" height="5.92" transform="translate(-32.96 138.1) rotate(-42.45)"/><path d="M149.37,126.33l-4-4.37v1.59L174.8,96.64h-1.59l4,4.37V99.42l-29.42,26.91c-1.07,1,.53,2.57,1.59,1.59L178.8,101a1.15,1.15,0,0,0,0-1.59l-4-4.37a1.13,1.13,0,0,0-1.59,0L143.79,122a1.13,1.13,0,0,0,0,1.59l4,4.37C148.76,129,150.35,127.4,149.37,126.33Z"/></g></g></svg>